<?xml version="1.0" encoding="utf-8"?>
<!-- Generator: Adobe Illustrator 19.1.0, SVG Export Plug-In . SVG Version: 6.00 Build 0)  -->
<svg version="1.1" id="Capa_1" xmlns="http://www.w3.org/2000/svg" xmlns:xlink="http://www.w3.org/1999/xlink" x="0px" y="0px"
	 viewBox="-255 129 512 512" style="enable-background:new -255 129 512 512;" xml:space="preserve">
<style type="text/css">
	.st0{fill:#24B47E;}
	.st1{fill:#FFD9D4;}
	.st2{fill:#FFCB63;}
	.st3{fill:#FFB4A9;}
	.st4{fill:#E18F4E;}
	.st5{fill:#4A55A5;}
	.st6{fill:#116F97;}
	.st7{fill:#6772E5;}
	.st8{fill:#002F42;}
	.st9{fill:#084F6D;}
	.st10{fill:#C27749;}
	.st11{fill:#93DBB0;}
	.st12{fill:#A6FFCB;}
	.st13{fill:#40211D;}
	.st14{fill:#60312C;}
	.st15{fill:#FFE2A8;}
	.st16{fill:#FFF0D3;}
	.st17{fill:#1E92D8;}
	.st18{fill:#1FA2FF;}
	.st19{fill:#FF6337;}
	.st20{fill:#FF4128;}
	.st21{fill:#31DD97;}
	.st22{fill:#12D8FA;}
	.st23{fill:#49C9FF;}
	.st24{fill:#85453D;}
	.st25{fill:#A45E43;}
</style>
<path class="st0" d="M249.5,226.5c-4.1,0-7.5,3.4-7.5,7.5v11.5c0,41.9-34.1,76-76,76h-30v15h30c50.2,0,91-40.8,91-91V234
	C257,229.9,253.6,226.5,249.5,226.5z"/>
<path class="st1" d="M-247.5,226.5c4.1,0,7.5,3.4,7.5,7.5v11.5c0,41.9,34.1,76,76,76h30v15h-30c-50.2,0-91-40.8-91-91V234
	C-255,229.9-251.6,226.5-247.5,226.5z"/>
<rect x="38.5" y="321.5" class="st2" width="45" height="15"/>
<rect x="-81.5" y="321.5" class="st3" width="45" height="15"/>
<path class="st4" d="M58.6,626.4l24.9-8.3V436.5h15v187c0,3.2-2.1,6.1-5.1,7.1l-30,10c-0.8,0.3-1.6,0.4-2.4,0.4
	c-3.1,0-6.1-2-7.1-5.1C52.6,631.9,54.7,627.7,58.6,626.4z"/>
<path class="st5" d="M63.4,626.4l-24.9-8.3V436.5h-15v187c0,3.2,2.1,6.1,5.1,7.1l30,10c0.8,0.3,1.6,0.4,2.4,0.4c3.1,0,6.1-2,7.1-5.1
	C69.4,631.9,67.3,627.7,63.4,626.4z"/>
<path id="SVGCleanerId_0" class="st6" d="M-61.4,626.4l24.9-8.3V436.5h15v187c0,3.2-2.1,6.1-5.1,7.1l-30,10
	c-0.8,0.3-1.6,0.4-2.4,0.4c-3.1,0-6.1-2-7.1-5.1C-67.4,631.9-65.3,627.7-61.4,626.4z"/>
<g>
	<path id="SVGCleanerId_0_1_" class="st7" d="M-61.4,626.4l24.9-8.3V436.5h15v187c0,3.2-2.1,6.1-5.1,7.1l-30,10
		c-0.8,0.3-1.6,0.4-2.4,0.4c-3.1,0-6.1-2-7.1-5.1C-67.4,631.9-65.3,627.7-61.4,626.4z"/>
</g>
<path class="st8" d="M-81.5,446.5v171.6l24.9,8.3c3.9,1.3,6.1,5.6,4.7,9.5c-1,3.1-4,5.1-7.1,5.1c-0.8,0-1.6-0.1-2.4-0.4l-30-10
	c-3.1-1-5.1-3.9-5.1-7.1v-177C-96.5,442.4-81.5,442.4-81.5,446.5z"/>
<path class="st9" d="M-157.6,456.8v72.4l-74.8,24.9c-3.1,1-5.1,3.9-5.1,7.1v31.6c0,4.1,3.4,7.5,7.5,7.5s7.5-3.4,7.5-7.5v-26.2
	l74.8-24.9c3.1-1,5.1-3.9,5.1-7.1v-77.8L-157.6,456.8L-157.6,456.8z"/>
<path class="st10" d="M234.4,554.1l-74.8-24.9V435h-15v99.5c0,3.2,2.1,6.1,5.1,7.1l74.8,24.9v26.2c0,4.1,3.4,7.5,7.5,7.5
	s7.5-3.4,7.5-7.5v-31.6C239.5,558,237.4,555.1,234.4,554.1z"/>
<path class="st5" d="M1,391.5v75c24.9,0,45-20.1,45-45L1,391.5z"/>
<path class="st7" d="M16,421.5l-15-30l-45,30c0,24.9,20.1,45,45,45C9.3,466.5,16,446.4,16,421.5z"/>
<path class="st11" d="M26,301.5H-4l20,120h30v-100C46,310.5,37,301.5,26,301.5z"/>
<path class="st12" d="M-4,301.5h-20c-11,0-20,9-20,20v100h60v-100C16,310.5,7,301.5-4,301.5z"/>
<path class="st10" d="M43.4,211.5L1,191.5v80c24.9,0,45-20.1,45-45C46,221.2,45.1,216.2,43.4,211.5z"/>
<path class="st13" d="M1,181.5l14.1,30h28.3C37.3,194,20.6,181.5,1,181.5z"/>
<path class="st4" d="M15.1,211.5l-42.4-20c-10.2,8.2-16.7,20.9-16.7,35c0,24.9,20.1,45,45,45c8.3,0,15-20.1,15-45
	C16,221.2,15.7,216.2,15.1,211.5z"/>
<path class="st14" d="M1,211.5h14.1c-2.1-17.5-7.6-30-14.1-30c-10.7,0-20.6,3.8-28.3,10C-23.2,203.2-12.1,211.5,1,211.5z"/>
<path class="st15" d="M-94,301.5h-30l-20,120l70-30v-70C-74,310.5-83,301.5-94,301.5z"/>
<path class="st16" d="M-124,301.5h-20c-11,0-20,9-20,20v100h60v-100C-104,310.5-113,301.5-124,301.5z"/>
<polygon class="st17" points="-74,391.5 -104,391.5 -124,429 -104,476.8 -74,476.8 "/>
<path class="st18" d="M-104,391.5h-60c-9.3,10.6-15,24.5-15,39.7v45.6h75V391.5z"/>
<circle class="st19" cx="-169" cy="246.5" r="25"/>
<path class="st3" d="M-104.9,211l-14.1,60.5c24.9,0,45-20.1,45-45L-104.9,211z"/>
<path class="st1" d="M-104,226.5c0-5.4-0.3-10.6-0.9-15.5l-41.1-20.5c-10.9,8.2-18,21.3-18,36c0,24.9,20.1,45,45,45
	C-110.7,271.5-104,251.4-104,226.5z"/>
<path class="st20" d="M-119,181.5l14.9,39.8c9.4,3.3,19.5,5.2,30.1,5.2C-74,201.6-94.1,181.5-119,181.5z"/>
<path class="st19" d="M-119,181.5c-10.1,0-19.5,3.4-27,9c10.5,14,25.1,24.9,41.9,30.8C-105,198.9-111.3,181.5-119,181.5z"/>
<path class="st10" d="M121,391.5v75c24.9,0,45-20.1,45-45L121,391.5z"/>
<path class="st4" d="M136,421.5l-15-30l-45,30c0,24.9,20.1,45,45,45C129.3,466.5,136,446.4,136,421.5z"/>
<path class="st0" d="M146,301.5h-30l20,120h30v-100C166,310.5,157,301.5,146,301.5z"/>
<path class="st21" d="M116,301.5H96c-11,0-20,9-20,20v100h60v-100C136,310.5,127,301.5,116,301.5z"/>
<path class="st13" d="M113.5,281.5v110c0,4.1,3.4,7.5,7.5,7.5s7.5-3.4,7.5-7.5v-110H113.5z"/>
<circle class="st12" cx="-202.5" cy="166.5" r="15"/>
<circle class="st0" cx="-232.5" cy="420.5" r="15"/>
<circle class="st12" cx="234.5" cy="420.5" r="15"/>
<circle class="st12" cx="59.9" cy="151.5" r="15"/>
<circle class="st22" cx="-145.2" cy="136.5" r="7.5"/>
<circle class="st18" cx="-59" cy="165.5" r="7.5"/>
<circle class="st0" cx="147.2" cy="151.5" r="7.5"/>
<circle class="st23" cx="-232.5" cy="346.5" r="7.5"/>
<g>
	<circle class="st22" cx="189.5" cy="181.5" r="7.5"/>
	<circle class="st22" cx="234.5" cy="346.5" r="7.5"/>
</g>
<circle class="st18" cx="204.5" cy="376.5" r="7.5"/>
<path class="st24" d="M121,181.5v101l45-46v-10C166,201.6,145.9,181.5,121,181.5z"/>
<path class="st25" d="M121,181.5c-24.9,0-45,20.1-45,45v10l60,46v-56C136,201.6,129.3,181.5,121,181.5z"/>
<path class="st15" d="M139.7,236.5c-1.1-1.6-2.3-3-3.7-4.3l-15,69.3c24.9,0,45-20.1,45-45v-20H139.7z"/>
<path class="st16" d="M136,256.5v-24.3c-4-3.6-9.2-5.7-15-5.7c-7.8,0-14.7,4-18.7,10H76v20c0,24.9,20.1,45,45,45
	C129.3,301.5,136,281.4,136,256.5z"/>
</svg>
