<?xml version="1.0" encoding="utf-8"?>
<!-- Generator: Adobe Illustrator 19.1.0, SVG Export Plug-In . SVG Version: 6.00 Build 0)  -->
<svg version="1.1" id="Layer_1" xmlns="http://www.w3.org/2000/svg" xmlns:xlink="http://www.w3.org/1999/xlink" x="0px" y="0px"
	 viewBox="-259 132.9 504.1 504.1" style="enable-background:new -259 132.9 504.1 504.1;" xml:space="preserve">
<style type="text/css">
	.st0{fill:#EFEFEF;}
	.st1{fill:#E5E4E4;}
	.st2{fill:#A6FFCB;}
	.st3{fill:#6BFCA5;}
	.st4{fill:#C8FCDC;}
	.st5{fill:#DCDCDC;}
	.st6{fill:#1FA2FF;}
	.st7{fill:#6EC8FF;}
</style>
<path class="st0" d="M127,264.8V186h1.2c10.2,0,18.5-7.9,18.5-17.7s-8.3-17.7-18.5-17.7H-0.2c-10.2,0-18.5,7.9-18.5,17.7
	S-10.5,186-0.2,186h1.2v77.6c-71.3,24.8-122.1,92.9-122.1,172.5c0,101.2,81.9,183.1,183.1,183.1s183.1-81.9,183.1-183.1
	C245.1,357.8,195.9,291.2,127,264.8z"/>
<path class="st1" d="M64,201.8h-63v61.4c-71.3,25.2-122.1,93.3-122.1,172.9c0,101.2,81.9,183.1,183.1,183.1h2V201.8z"/>
<path class="st2" d="M32.8,400.7c72.5,0,156-67,176.4,0.4c3.5,11.4,4.3,23.6,4.3,36.2c0,85.5-68.9,154.8-153.6,154.8
	S-93.6,522.8-93.6,437.3c0-18.1,3.2-35.4,8.7-52C-70.7,348.3-34.1,400.7,32.8,400.7z"/>
<path class="st3" d="M64,397.1c-10.6,2-20.9,3.5-31.1,3.5c-67,0-103.6-52.4-117.8-15.4c-5.9,16.1-8.7,33.5-8.7,52
	c0,85.5,68.9,154.8,153.6,154.8H64C64,592.1,64,397.1,64,397.1z"/>
<path class="st4" d="M97.4,497.2c-14.2,0-25.6,11.4-25.6,25.6c0,14.2,11.4,25.6,25.6,25.6S123,537,123,522.8
	C123,508.6,111.6,497.2,97.4,497.2z M101.4,461.7c7.5,0,13.8-6.3,13.8-13.8s-6.3-13.8-13.8-13.8s-13.8,6.3-13.8,13.8
	C87.6,455.4,93.9,461.7,101.4,461.7z M152.6,457.8c-9.8,0-17.7,7.9-17.7,17.7s7.9,17.7,17.7,17.7c9.8,0,17.7-7.9,17.7-17.7
	S162.4,457.8,152.6,457.8z M164.4,402.7c-7.5,0-13.8,6.3-13.8,13.8s6.3,13.8,13.8,13.8s13.8-6.3,13.8-13.8
	C178.2,409,171.9,402.7,164.4,402.7z"/>
<path class="st5" d="M0.9,186h126v15.8H0.9V186z"/>
<path class="st0" d="M-62.1,150.6h-181.2c-8.7,0-15.8,7.1-15.8,15.8v3.9c0,8.7,7.1,15.8,15.8,15.8v343c0,50,40.6,90.2,90.6,90.2
	s90.6-40.6,90.6-90.2V186c8.7,0,15.8-7.1,15.8-15.8v-3.9C-46.3,157.7-53.4,150.6-62.1,150.6z"/>
<path class="st5" d="M-243.2,186h181.2v15.8h-181.2V186z"/>
<path class="st6" d="M-125.9,268.8c19.3,0,35.8,9.1,35.8,9.1v251.3c0,34.7-28.4,62.6-63,62.6s-63-28-63-62.6V277.8
	c0,0,16.1,9.1,35.8,9.1S-144.4,268.8-125.9,268.8z"/>
<path class="st7" d="M-164.5,386.9c-13,0-23.6,10.6-23.6,23.6s10.6,23.6,23.6,23.6s23.6-10.6,23.6-23.6S-151.5,386.9-164.5,386.9z
	 M-127.1,367.2c7.5,0,13.8-6.3,13.8-13.8c0-7.5-6.3-13.8-13.8-13.8s-13.8,6.3-13.8,13.8C-140.8,360.9-134.5,367.2-127.1,367.2z
	 M-127.1,457.8c-9.8,0-17.7,7.9-17.7,17.7s7.9,17.7,17.7,17.7s17.7-7.9,17.7-17.7S-117.2,457.8-127.1,457.8z M-172.4,505.1
	c-6.7,0-11.8,5.1-11.8,11.8s5.1,11.8,11.8,11.8c6.7,0,11.8-5.1,11.8-11.8C-160.5,510.6-166.1,505.1-172.4,505.1z"/>
<ellipse class="st4" cx="12.8" cy="461.7" rx="31.5" ry="31.5"/>
</svg>
