<?xml version="1.0" encoding="utf-8"?>
<!-- Generator: Adobe Illustrator 19.1.0, SVG Export Plug-In . SVG Version: 6.00 Build 0)  -->
<svg version="1.1" id="Capa_1" xmlns="http://www.w3.org/2000/svg" xmlns:xlink="http://www.w3.org/1999/xlink" x="0px" y="0px"
	 viewBox="-188 66.3 464 464" style="enable-background:new -188 66.3 464 464;" xml:space="preserve">
<style type="text/css">
	.st0{fill:#322153;}
	.st1{fill:#55FFFF;}
</style>
<path class="st0" d="M-68,530.3c4.4,0,8-3.6,8-8v-8h8c4.4,0,8-3.6,8-8s-3.6-8-8-8h-8v-8c0-4.4-3.6-8-8-8s-8,3.6-8,8v8h-8
	c-4.4,0-8,3.6-8,8s3.6,8,8,8h8v8C-76,526.7-72.4,530.3-68,530.3z"/>
<g>
	<path class="st1" d="M219.1,178.4c5.8-32.4,4.8-68.1,4.8-68.1S135.8,108,110.7,133c-12.6,12.7-18.9,29.4-18.7,45.9
		c0.2,16.2,6.4,32.3,18.7,44.6c4.1,4.1,8.5,7.4,13.3,10.1c24.5,14.2,56.3,10.8,77.3-10.1C210.3,214.4,215.8,197,219.1,178.4z
		 M132.6,202.3H132l1.3-1.2C133,201.5,132.8,201.9,132.6,202.3z"/>
	<path class="st1" d="M-148,370.3c-13.2,0-24,10.8-24,24s10.8,24,24,24s24-10.8,24-24S-134.8,370.3-148,370.3z M-148,402.3
		c-4.4,0-8-3.6-8-8s3.6-8,8-8s8,3.6,8,8S-143.6,402.3-148,402.3z"/>
	<path class="st1" d="M236,466.3c-13.2,0-24,10.8-24,24s10.8,24,24,24s24-10.8,24-24S249.2,466.3,236,466.3z M236,498.3
		c-4.4,0-8-3.6-8-8s3.6-8,8-8s8,3.6,8,8S240.4,498.3,236,498.3z"/>
</g>
<g>
	<path class="st0" d="M-4,169.4c-12-23.2-36.1-39.2-64-39.2c-39.7,0-72,32.3-72,72c0,27.4,15.6,52.1,39.5,64.2
		c-4.9,9.8-7.5,20.6-7.5,31.8c0,27.4,15.6,52.1,39.5,64.2c-4.9,9.8-7.5,20.6-7.5,31.8c0,37.1,28.3,67.8,64.4,71.6
		c3.8,36.1,34.5,64.4,71.6,64.4s67.8-28.3,71.6-64.4c36.1-3.8,64.4-34.5,64.4-71.6c0-11.2-2.6-22-7.5-31.8
		c24-12.1,39.5-36.8,39.5-64.2c0-11.2-2.6-22-7.5-31.8c24-12.1,39.5-36.8,39.5-64.2c0-24.1-12.2-46.4-32.1-59.7
		c4.9-31.2,4.1-63,4.1-64.4c-0.1-4.2-3.5-7.7-7.8-7.8c-9.4-0.2-92.4-1.6-119.1,25c-6.1,6.2-10.9,13.3-14.4,20.9
		C78.2,95.6,51,66.3-4,66.3c-4.4,0-8,3.6-8,8v32c0,2.3,1,4.5,2.7,6c1.7,1.5,4,2.2,6.3,2c0.6-0.1,49-5.4,78,17.8
		c-4.9-1-9.9-1.7-15-1.7C32.1,130.3,8,146.2-4,169.4z M10.3,97.6c-2.3,0-4.4,0-6.3,0.1V82.5c28.6,1.7,47.4,12.6,59.6,24.5
		C44.4,99.2,23.8,97.6,10.3,97.6z M60,146.3c8.5,0,16.8,1.9,24.2,5.5c0,0.4,0.1,0.8,0.1,1.2c0.1,0.9,0.2,1.9,0.3,2.8
		c0.2,1.3,0.4,2.6,0.6,3.9c0.2,0.9,0.4,1.8,0.6,2.7c0.3,1.3,0.6,2.6,1,3.9c0.2,0.9,0.5,1.7,0.8,2.6c0.4,1.3,0.9,2.5,1.4,3.8
		c0.3,0.8,0.6,1.6,1,2.4c0.6,1.3,1.2,2.5,1.8,3.7c0.4,0.8,0.8,1.5,1.2,2.3c0.7,1.3,1.5,2.5,2.2,3.7c0.4,0.7,0.8,1.4,1.3,2
		c0.9,1.3,1.9,2.6,2.8,3.8c0.4,0.5,0.8,1.1,1.2,1.6c1.4,1.7,3,3.4,4.6,5c2.1,2.1,4.2,3.9,6.4,5.6c0.7,0.5,1.4,1,2.1,1.5
		c0.8,0.6,1.5,1.2,2.3,1.7c-0.8,12.5-5.8,24.3-14.1,33.6c-0.2-0.2-0.5-0.3-0.7-0.4c-2.6-1.8-5.3-3.5-8.2-4.9c-0.3-0.2-0.6-0.4-1-0.5
		c-2.9-1.4-5.9-2.6-9-3.7c-0.6-0.2-1.2-0.4-1.8-0.6c-3.1-0.9-6.2-1.7-9.4-2.2c-0.5-0.1-1.1-0.1-1.6-0.2c-3.3-0.5-6.7-0.8-10.1-0.8
		c-3.4,0-6.8,0.3-10.1,0.8c-0.5,0.1-1.1,0.1-1.6,0.2c-3.2,0.5-6.3,1.3-9.4,2.2c-0.6,0.2-1.2,0.4-1.8,0.6c-3.1,1-6.1,2.2-9,3.7
		c-0.3,0.2-0.7,0.4-1,0.5c-2.8,1.5-5.6,3.1-8.2,4.9c-0.2,0.2-0.5,0.3-0.7,0.4C9.1,229.4,4,216.1,4,202.3
		C4,171.4,29.1,146.3,60,146.3z M115.5,305.4c-0.1,0.7-0.3,1.5-0.4,2.2c-0.3,1.6-0.6,3.2-1,4.7c-0.2,0.9-0.5,1.7-0.8,2.5
		c-0.4,1.4-0.9,2.8-1.4,4.2c-0.4,0.9-0.7,1.8-1.1,2.6c-0.3,0.7-0.7,1.4-1.1,2.1c-0.3,0.1-0.6,0.2-0.8,0.2c-2.9,0.6-5.7,1.4-8.6,2.4
		c-16,5.5-29.6,16.6-38.2,31.2c-0.7,1.2-1.4,2.5-2.1,3.8c-0.7-1.3-1.3-2.5-2.1-3.7c-8.6-14.6-22.2-25.7-38.2-31.3
		c-2.9-1-5.8-1.8-8.7-2.4c-0.3-0.1-0.6-0.2-0.8-0.2c-0.4-0.7-0.8-1.4-1.1-2.1c-0.4-0.8-0.8-1.7-1.1-2.6c-0.5-1.4-1-2.7-1.4-4.1
		c-0.3-0.9-0.6-1.7-0.8-2.6c-0.4-1.5-0.7-3.1-1-4.7c-0.1-0.8-0.3-1.5-0.4-2.3C4.2,303,4,300.7,4,298.3c0-13.6,5-26.8,14-37
		c1.5-1.7,3.2-3.4,5-5c10.3-9,23.4-14,37-14c13.6,0,26.8,5,37,14c1.7,1.5,3.4,3.2,5,5c9,10.3,14,23.4,14,37
		C116,300.7,115.8,303,115.5,305.4z M-124,202.3c0-30.9,25.1-56,56-56s56,25.1,56,56c0,9.2-2.4,18.1-6.7,26.2
		c-5.7-1.4-11.5-2.2-17.3-2.2c-21.8,0-42.1,9.9-55.7,26.6C-111.2,243.7-124,224.1-124,202.3z M-92,298.3c0-11.2,3.3-21.9,9.5-31.2
		c10.4-15.6,27.8-24.8,46.5-24.8c6.3,0,12.5,1.1,18.5,3.2c6.9,2.4,13.3,6.2,18.8,11.1c-0.2,0.2-0.3,0.5-0.4,0.7
		c-1.8,2.6-3.5,5.4-4.9,8.2c-0.2,0.3-0.4,0.6-0.5,1c-1.4,2.9-2.6,5.9-3.7,9c-0.2,0.6-0.4,1.2-0.6,1.8c-0.9,3.1-1.7,6.2-2.2,9.4
		c-0.1,0.5-0.1,1.1-0.2,1.6c-0.5,3.3-0.8,6.7-0.8,10.1c0,2.9,0.2,5.8,0.6,8.6c0.1,0.6,0.2,1.3,0.2,1.9c0.4,2.8,1,5.5,1.7,8.3
		c0.1,0.4,0.2,0.8,0.4,1.1c0.4,1.4,0.8,2.8,1.3,4.2c-1,0.1-2,0.2-3.1,0.3c-1,0.1-2.1,0.2-3.1,0.3c-1.9,0.3-3.7,0.6-5.5,1
		c-0.9,0.2-1.7,0.3-2.6,0.6c-2.6,0.7-5.2,1.5-7.8,2.5c-0.2,0.1-0.4,0.2-0.6,0.3c-2.3,0.9-4.6,2-6.8,3.1c-0.8,0.4-1.7,1-2.5,1.4
		c-1.5,0.9-3,1.8-4.5,2.8c-0.9,0.6-1.8,1.3-2.7,1.9c-1.3,1-2.6,2-3.8,3.1c-0.9,0.7-1.7,1.5-2.5,2.3c-1.2,1.1-2.3,2.3-3.5,3.5
		c-0.8,0.8-1.5,1.6-2.2,2.5c-0.3,0.3-0.6,0.6-0.8,0.9C-79.3,339.8-92,320.1-92,298.3z M-60,394.3c0-11.2,3.3-21.9,9.5-31.2
		c10.4-15.6,27.8-24.8,46.5-24.8c2.5,0,5,0.2,7.9,0.6c3.4,0.5,7,1.3,10.6,2.6c12.4,4.3,23,12.9,29.7,24.3c1.2,1.9,2.1,4,3.1,6
		c0.3,0.6,0.5,1.2,0.7,1.8c0.6,1.5,1.2,3.1,1.6,4.7c0.2,0.6,0.4,1.3,0.6,1.9c0.6,2.1,1,4.3,1.3,6.5c0,0,0,0.1,0,0.1
		c-1.8,0.2-3.6,0.5-5.4,0.9c-0.2,0-0.4,0.1-0.6,0.1c-2.2,0.4-4.3,1-6.4,1.7c-0.7,0.2-1.3,0.5-2,0.7c-1.4,0.5-2.8,1-4.2,1.5
		c-0.8,0.3-1.5,0.7-2.3,1c-1.2,0.6-2.5,1.1-3.7,1.8c-0.8,0.4-1.5,0.8-2.3,1.2c-1.2,0.7-2.3,1.4-3.4,2.1c-0.7,0.5-1.4,0.9-2.1,1.4
		c-1.2,0.8-2.3,1.7-3.5,2.6c-0.6,0.4-1.2,0.9-1.7,1.3c-1.6,1.3-3.1,2.7-4.6,4.2c-0.1,0.1-0.2,0.2-0.3,0.3c-1.5,1.5-2.9,3-4.2,4.6
		c-0.5,0.6-0.9,1.2-1.3,1.7c-0.9,1.1-1.8,2.3-2.6,3.4c-0.5,0.7-0.9,1.4-1.4,2.1c-0.7,1.1-1.4,2.3-2.1,3.4c-0.4,0.8-0.8,1.5-1.2,2.3
		c-0.6,1.2-1.2,2.4-1.8,3.6c-0.4,0.8-0.7,1.5-1,2.3c-0.6,1.4-1,2.8-1.5,4.2c-0.2,0.7-0.5,1.4-0.7,2c-0.6,2.1-1.2,4.2-1.7,6.4
		c0,0.2-0.1,0.5-0.1,0.7c-0.3,1.8-0.7,3.6-0.9,5.4C-38.8,446.1-60,422.6-60,394.3z M60,514.3c-30.9,0-56-25.1-56-56s25.1-56,56-56
		c30.9,0,56,25.1,56,56S90.9,514.3,60,514.3z M131.5,449.8c-0.2-1.8-0.5-3.6-0.9-5.4c0-0.2-0.1-0.5-0.1-0.7c-0.4-2.2-1-4.3-1.6-6.4
		c-0.2-0.7-0.5-1.4-0.7-2.1c-0.5-1.4-1-2.8-1.5-4.1c-0.3-0.8-0.7-1.6-1-2.4c-0.6-1.2-1.1-2.4-1.7-3.6c-0.4-0.8-0.8-1.6-1.3-2.3
		c-0.7-1.2-1.3-2.3-2.1-3.4c-0.5-0.7-0.9-1.4-1.4-2.2c-0.8-1.2-1.7-2.3-2.5-3.4c-0.5-0.6-0.9-1.2-1.4-1.8c-1.3-1.5-2.6-3-4-4.4
		c-0.2-0.2-0.4-0.4-0.6-0.6c-1.4-1.4-2.9-2.8-4.4-4c-0.6-0.5-1.2-0.9-1.8-1.4c-1.1-0.9-2.2-1.7-3.4-2.5c-0.7-0.5-1.4-1-2.2-1.4
		c-1.1-0.7-2.2-1.4-3.4-2.1c-0.8-0.4-1.5-0.9-2.3-1.3c-1.2-0.6-2.4-1.2-3.6-1.7c-0.8-0.4-1.6-0.7-2.4-1c-1.4-0.6-2.7-1-4.1-1.5
		c-0.7-0.2-1.4-0.5-2.1-0.7c-2.1-0.6-4.2-1.2-6.4-1.6c-0.2,0-0.5-0.1-0.7-0.1c-1.8-0.3-3.6-0.7-5.4-0.9c0.3-2.2,0.8-4.4,1.4-6.6
		c0.2-0.6,0.4-1.2,0.5-1.9c0.5-1.6,1-3.2,1.7-4.8c0.2-0.6,0.5-1.2,0.7-1.8c0.9-2.1,1.9-4.1,3.1-6c6.7-11.3,17.2-20,29.7-24.3
		c3.6-1.2,7.2-2.1,10.6-2.6c2.8-0.4,5.4-0.6,7.9-0.6c2.3,0,4.7,0.1,6.9,0.4c16,2,30.4,10.8,39.6,24.5c6.2,9.2,9.5,19.9,9.5,31.1
		C180,422.6,158.8,446.1,131.5,449.8z M179.9,348.9c-0.3-0.3-0.6-0.6-0.9-1c-0.7-0.8-1.4-1.6-2.1-2.4c-1.2-1.3-2.4-2.5-3.6-3.7
		c-0.8-0.8-1.6-1.5-2.4-2.2c-1.3-1.1-2.6-2.2-4-3.2c-0.8-0.6-1.7-1.3-2.6-1.9c-1.5-1-3.1-2-4.6-2.8c-0.8-0.5-1.6-0.9-2.4-1.4
		c-2.3-1.2-4.6-2.3-7-3.2c-0.1-0.1-0.3-0.1-0.4-0.2c-2.5-1-5.1-1.8-7.8-2.5c-0.8-0.2-1.7-0.4-2.5-0.5c-1.8-0.4-3.7-0.8-5.6-1
		c-1-0.1-2.1-0.2-3.1-0.3c-1-0.1-2-0.3-3.1-0.3c0.5-1.4,0.9-2.8,1.3-4.2c0.1-0.4,0.2-0.7,0.3-1.1c0.7-2.7,1.3-5.5,1.7-8.3
		c0.1-0.6,0.2-1.3,0.2-1.9c0.3-2.9,0.6-5.7,0.6-8.6c0-3.4-0.3-6.8-0.8-10.1c-0.1-0.5-0.1-1.1-0.2-1.6c-0.5-3.2-1.3-6.3-2.2-9.4
		c-0.2-0.6-0.4-1.2-0.6-1.7c-1-3.1-2.2-6.1-3.7-9c-0.2-0.3-0.4-0.6-0.5-1c-1.4-2.8-3.1-5.5-4.9-8.1c-0.2-0.2-0.3-0.5-0.4-0.7
		c5.5-4.9,11.9-8.7,18.9-11.1c6-2.1,12.2-3.2,18.5-3.2c2.3,0,4.7,0.1,6.9,0.4c16,2,30.4,10.8,39.6,24.5c6.2,9.2,9.5,19.9,9.5,31.1
		C212,320.1,199.3,339.8,179.9,348.9z M244,202.3c0,21.8-12.7,41.5-32.1,50.6c-0.3-0.3-0.6-0.6-0.8-0.9c-0.8-0.9-1.6-1.8-2.4-2.7
		c-1.1-1.2-2.2-2.4-3.4-3.5c-0.9-0.8-1.8-1.6-2.7-2.4c-1.2-1-2.5-2-3.8-3c-1-0.7-2-1.4-3-2.1c-1.3-0.9-2.7-1.7-4.1-2.5
		c-1-0.6-2.1-1.2-3.1-1.7c-1.4-0.7-2.9-1.4-4.4-2c-1.1-0.5-2.1-0.9-3.2-1.3c-1.6-0.6-3.2-1.1-4.8-1.5c-1.1-0.3-2.1-0.7-3.2-0.9
		c-1.8-0.4-3.7-0.7-5.6-1c-0.9-0.1-1.8-0.4-2.8-0.5c-2.8-0.3-5.7-0.5-8.5-0.5c-2.6,0-5.2,0.2-7.8,0.5c-0.7,0.1-1.4,0.2-2,0.3
		c-2.3,0.3-4.6,0.7-6.9,1.3c-0.2,0.1-0.5,0.1-0.7,0.1c-2.3-4.3-4-9-5.1-13.8c0.7,0.2,1.3,0.3,2,0.5c1.7,0.5,3.4,0.9,5.1,1.3
		c1.4,0.3,2.8,0.6,4.2,0.8c1.8,0.3,3.6,0.5,5.4,0.6c1.4,0.1,2.7,0.2,4.1,0.3c0.6,0,1.2,0.1,1.7,0.1c2.2,0,4.4-0.1,6.5-0.3
		c0.1,0,0.1,0,0.2,0c3-0.3,5.9-0.8,8.8-1.4c0.7-0.1,1.3-0.3,2-0.5c2.4-0.6,4.8-1.3,7.1-2.2c0.5-0.2,1.1-0.4,1.6-0.6
		c2.8-1.1,5.5-2.3,8.1-3.8c0.5-0.3,0.9-0.6,1.4-0.8c2.2-1.2,4.3-2.6,6.3-4c0.7-0.5,1.3-0.9,1.9-1.4c2.4-1.9,4.8-3.8,7-6
		c1.1-1.1,2.1-2.2,3.1-3.5c0.3-0.4,0.6-0.8,0.9-1.3c0.7-0.9,1.3-1.8,2-2.8c0.3-0.5,0.7-1.1,1-1.6c0.6-1,1.2-2.1,1.7-3.2
		c0.3-0.6,0.6-1.2,0.9-1.8c0.6-1.3,1.2-2.6,1.8-4c0.2-0.5,0.4-0.9,0.6-1.4c0.8-1.9,1.5-3.9,2.2-6c0.2-0.5,0.3-1,0.4-1.4
		c0.5-1.7,1.1-3.4,1.6-5.2c0.2-0.8,0.4-1.6,0.6-2.4c0.2-0.9,0.5-1.8,0.7-2.7C236.7,170.4,244,185.8,244,202.3z M116.4,106.7
		c16.8-16.7,71.8-20.3,99.6-20.4c-0.1,12.1-0.7,36.4-4.7,58.8c-4.5,25.2-11,36.2-15.6,40.8c-6,6-13.2,10.3-20.9,13
		c-15.2,5.4-32.3,4.2-46.9-4.2c-4.1-2.3-7.9-5.1-11.5-8.7c-10.4-10.4-16.2-24.3-16.4-39.1C99.9,131.7,105.7,117.4,116.4,106.7z"/>
	<path class="st0" d="M124,171c0,0.4,0.2,0.8,0.3,1.2c0.1,0.4,0.1,0.7,0.2,1.1c0,0,0,0,0,0.1c0,0,0,0,0,0c0,0,0,0,0,0
		c0,0.1,0.1,0.2,0.2,0.3c0.1,0.3,0.3,0.5,0.5,0.8c0.2,0.3,0.3,0.7,0.6,0.9c0.1,0.1,0.2,0.2,0.4,0.3c0.2,0.2,0.4,0.4,0.6,0.6
		c0,0,0,0,0.1,0.1c0.2,0.2,0.4,0.4,0.7,0.6c0.3,0.2,0.6,0.3,0.9,0.4c0.3,0.1,0.5,0.3,0.8,0.4c0.2,0.1,0.3,0.2,0.4,0.2
		c0.8,0.2,1.5,0.4,2.4,0.4h0.6H180c4.4,0,8-3.6,8-8c0-4.4-3.6-8-8-8h-28.6l32.9-33c3.1-3.1,3.1-8.2,0-11.3c-3.1-3.1-8.2-3.1-11.3,0
		l-33,33v-28.7c0-4.4-3.6-8-8-8s-8,3.6-8,8v48c0,0.1,0,0.2,0,0.2C124.1,170.7,124,170.8,124,171z"/>
</g>
</svg>
