<?xml version="1.0" encoding="utf-8"?>
<!-- Generator: Adobe Illustrator 19.1.0, SVG Export Plug-In . SVG Version: 6.00 Build 0)  -->
<svg version="1.1" id="Layer_1" xmlns="http://www.w3.org/2000/svg" xmlns:xlink="http://www.w3.org/1999/xlink" x="0px" y="0px"
	 viewBox="-259 132.8 504.2 504.2" style="enable-background:new -259 132.8 504.2 504.2;" xml:space="preserve">
<style type="text/css">
	.st0{fill:#12D8FA;}
	.st1{fill:#1FA2FF;}
	.st2{fill:#EFC75E;}
	.st3{fill:#A6FFCB;}
</style>
<path class="st0" d="M-214.8,224.6c74.8-76,148.5-42.5,208,11.4c59.1-54,132.7-87.8,208-11.4c58.7,59.5,59.1,155.2,0,214.6
	C102.2,529.8,50.6,576.7,23.4,601.5c-16.9,15.4-42.5,15.4-59.5,0c-27.2-24.4-79.2-71.7-178.8-162.3
	C-273.9,380.2-273.5,284.5-214.8,224.6z"/>
<path class="st1" d="M-6.9,236v377.3c10.6,0,21.7-3.9,30.3-11.4c27.2-24.8,78.8-71.7,177.6-162.3c59.1-59.5,58.7-155.2,0-214.6
	C125.8,148.2,52.2,182.1-6.9,236z"/>
<path class="st2" d="M127,215.5c35.4-3.9,55.1-23.6,59.1-59.1c3.9,35.4,23.6,55.1,59.1,59.1c-35.4,3.9-55.1,23.6-59.1,59.1
	C182.2,239.2,162.5,219.5,127,215.5z"/>
<path class="st3" d="M-203.8,327.4c0-50.8,41.4-92.2,92.2-92.2c5.9,0,10.2,4.7,10.2,10.2c0,5.9-4.7,10.2-10.2,10.2
	c-39.4,0-71.3,31.9-71.3,71.3c0,5.9-4.7,10.2-10.2,10.2C-199.1,337.6-203.8,332.9-203.8,327.4z"/>
</svg>
