<?xml version="1.0" encoding="utf-8"?>
<!-- Generator: Adobe Illustrator 19.1.0, SVG Export Plug-In . SVG Version: 6.00 Build 0)  -->
<svg version="1.1" id="Capa_1" xmlns="http://www.w3.org/2000/svg" xmlns:xlink="http://www.w3.org/1999/xlink" x="0px" y="0px"
	 viewBox="-255 129 512 512" style="enable-background:new -255 129 512 512;" xml:space="preserve">
<style type="text/css">
	.st0{fill:#85453D;}
	.st1{fill:#A6FFCB;}
	.st2{fill:#A45E43;}
	.st3{fill:#93DBB0;}
	.st4{fill:#40211D;}
	.st5{fill:#60312C;}
	.st6{fill:#14C8DB;}
	.st7{fill:#12D8FA;}
	.st8{fill:#5B67C1;}
	.st9{fill:#6772E5;}
	.st10{fill:#FFFFFF;}
	.st11{fill:#1FA2FF;}
	.st12{fill:#1E92D8;}
	.st13{fill:#C27749;}
	.st14{fill:#E18F4E;}
	.st15{fill:#24B47E;}
</style>
<path class="st0" d="M-15.2,220.3c-4.2,0-7.6,3.4-7.6,7.6v11.7c0,42.5-34.6,77.1-77.1,77.1h-30.4V332h30.4
	c50.9,0,92.4-41.4,92.4-92.4v-11.7C-7.6,223.7-11,220.3-15.2,220.3z"/>
<path class="st1" d="M17.2,220.3c4.2,0,7.6,3.4,7.6,7.6v11.7c0,42.5,34.6,77.1,77.1,77.1h30.4V332H102c-50.9,0-92.4-41.4-92.4-92.4
	v-11.7C9.6,223.7,13,220.3,17.2,220.3z"/>
<path class="st2" d="M-200.2,433.3l-7.3-2.1c-24.8-7.2-42.2-30.2-42.2-56.1c0-32.2,26.2-58.4,58.4-58.4h7.6V332h-7.6
	c-23.8,0-43.1,19.3-43.1,43.1c0,19.1,12.8,36.2,31.2,41.5l7.3,2.1L-200.2,433.3z"/>
<path class="st3" d="M193.3,433.5h-7.6v-15.2h7.6c23.8,0,43.1-19.3,43.1-43.1c0-23.8-19.3-43.1-43.1-43.1h-7.6v-15.2h7.6
	c32.2,0,58.4,26.2,58.4,58.4S225.5,433.5,193.3,433.5z"/>
<path class="st4" d="M-82.3,626.2l-25.2-8.4V443.6h-15.2v179.6c0,3.3,2.1,6.2,5.2,7.2l30.4,10.1c0.8,0.3,1.6,0.4,2.4,0.4
	c3.2,0,6.2-2,7.2-5.2C-76.2,631.8-78.4,627.5-82.3,626.2z"/>
<path class="st5" d="M-143.2,626.2l-25.2-8.4V443.6h-15.2v179.6c0,3.3,2.1,6.2,5.2,7.2l30.4,10.1c0.8,0.3,1.6,0.4,2.4,0.4
	c3.2,0,6.2-2,7.2-5.2C-137.1,631.8-139.3,627.5-143.2,626.2z"/>
<path class="st6" d="M-120.3,296.5h-30.4L-171,418.2l71-30.4v-71C-100,305.5-109.1,296.5-120.3,296.5z"/>
<path class="st7" d="M-150.7,296.5H-171c-11.2,0-20.3,9.1-20.3,20.3v101.5h60.9V316.7C-130.4,305.5-139.5,296.5-150.7,296.5z"/>
<polygon class="st8" points="-100,387.8 -130.4,387.8 -150.7,425.8 -130.4,463.9 -100,463.9 "/>
<path class="st9" d="M-130.4,387.8h-60.9c-9.5,10.7-15.2,24.8-15.2,40.3v35.9h76.1V387.8z"/>
<g>
	<circle class="st10" cx="-145.6" cy="326.9" r="7.6"/>
	<circle class="st10" cx="-145.6" cy="357.3" r="7.6"/>
</g>
<path class="st0" d="M-145.6,174.7V266c25.2,0,45.7-20.4,45.7-45.7S-120.4,174.7-145.6,174.7z"/>
<path class="st2" d="M-130.4,220.3c0-25.2-6.8-45.7-15.2-45.7c-25.2,0-45.7,20.4-45.7,45.7s20.4,45.7,45.7,45.7
	C-137.2,266-130.4,245.6-130.4,220.3z"/>
<circle class="st4" cx="-145.6" cy="151.8" r="22.8"/>
<path class="st11" d="M109.6,432v185.8l-25.2,8.4c-4,1.3-6.1,5.6-4.8,9.6c1.1,3.2,4,5.2,7.2,5.2c0.8,0,1.6-0.1,2.4-0.4l30.4-10.1
	c3.1-1,5.2-3.9,5.2-7.2V432L109.6,432L109.6,432z"/>
<g>
	<path class="st12" d="M170.5,432v185.8l-25.2,8.4c-4,1.3-6.1,5.6-4.8,9.6c1.1,3.2,4,5.2,7.2,5.2c0.8,0,1.6-0.1,2.4-0.4l30.4-10.1
		c3.1-1,5.2-3.9,5.2-7.2V432H170.5z"/>
	<path class="st12" d="M147.6,387.8v76.1c25.2,0,45.7-20.4,45.7-45.7L147.6,387.8z"/>
</g>
<path class="st11" d="M162.9,418.2l-15.2-30.4L102,418.2c0,25.2,20.4,45.7,45.7,45.7C156.1,463.9,162.9,443.5,162.9,418.2z"/>
<path class="st3" d="M173,296.5h-30.4l20.3,121.8h30.4V316.7C193.3,305.5,184.2,296.5,173,296.5z"/>
<path class="st1" d="M142.6,296.5h-20.3c-11.2,0-20.3,9.1-20.3,20.3v101.5h60.9V316.7C162.9,305.5,153.8,296.5,142.6,296.5z"/>
<path class="st13" d="M190.7,205.1l-43.1-20.3V266c25.2,0,45.7-20.4,45.7-45.7C193.3,215,192.4,209.9,190.7,205.1z"/>
<path class="st4" d="M147.6,174.7l14.4,30.4h28.7C184.4,187.4,167.5,174.7,147.6,174.7z"/>
<path class="st14" d="M162,205.1l-43.1-20.3c-10.3,8.4-17,21.2-17,35.5c0,25.2,20.4,45.7,45.7,45.7c8.4,0,15.2-20.4,15.2-45.7
	C162.9,215,162.6,209.9,162,205.1z"/>
<path class="st5" d="M147.6,205.1H162c-2.1-17.7-7.7-30.4-14.4-30.4c-10.9,0-20.9,3.8-28.7,10.2
	C123.1,196.7,134.4,205.1,147.6,205.1z"/>
<g>
	<path class="st15" d="M-43.7,235.6h-15.2c-4.2,0-7.6-3.4-7.6-7.6c0-4.2,3.4-7.6,7.6-7.6h15.2c4.2,0,7.6,3.4,7.6,7.6
		C-36,232.2-39.4,235.6-43.7,235.6z"/>
	<path class="st15" d="M60.9,235.6H45.7c-4.2,0-7.6-3.4-7.6-7.6c0-4.2,3.4-7.6,7.6-7.6h15.2c4.2,0,7.6,3.4,7.6,7.6
		C68.5,232.2,65.1,235.6,60.9,235.6z"/>
	<path class="st15" d="M32.6,204c-1.9,0-3.9-0.7-5.4-2.2c-3-3-3-7.8,0-10.8L38,180.2c3-3,7.8-3,10.8,0c3,3,3,7.8,0,10.8L38,201.8
		C36.5,203.2,34.5,204,32.6,204z"/>
	<path class="st15" d="M1,190.9c-4.2,0-7.6-3.4-7.6-7.6v-15.2c0-4.2,3.4-7.6,7.6-7.6c4.2,0,7.6,3.4,7.6,7.6v15.2
		C8.6,187.5,5.2,190.9,1,190.9z"/>
	<path class="st15" d="M-30.6,204c-1.9,0-3.9-0.7-5.4-2.2L-46.7,191c-3-3-3-7.8,0-10.8c3-3,7.8-3,10.8,0l10.8,10.8c3,3,3,7.8,0,10.8
		C-26.7,203.2-28.6,204-30.6,204z"/>
</g>
</svg>
