<?xml version="1.0" encoding="utf-8"?>
<!-- Generator: Adobe Illustrator 19.1.0, SVG Export Plug-In . SVG Version: 6.00 Build 0)  -->
<svg version="1.1" id="Layer_1" xmlns="http://www.w3.org/2000/svg" xmlns:xlink="http://www.w3.org/1999/xlink" x="0px" y="0px"
	 viewBox="-255 129 512 512" style="enable-background:new -255 129 512 512;" xml:space="preserve">
<style type="text/css">
	.st0{fill:#576D7E;}
	.st1{fill:#C9D5DD;}
	.st2{fill:#12D8FA;}
	.st3{fill:#1FA2FF;}
	.st4{fill:#A6FFCB;}
	.st5{fill:#ECF0F9;}
	.st6{fill:#C9D5E3;}
	.st7{fill:#B2C4D0;}
	.st8{fill:#35495C;}
</style>
<path class="st0" d="M23.4,641h-44.9c-6.2,0-11.8-3.5-14.5-9l-11.8-23.5h97.5L38,632C35.2,637.5,29.6,641,23.4,641z"/>
<path class="st1" d="M-64,494.7H66c4.5,0,8.1,3.6,8.1,8.1v89.4c0,9-7.3,16.3-16.3,16.3H-55.9c-9,0-16.3-7.3-16.3-16.3v-89.4
	C-72.1,498.4-68.5,494.7-64,494.7z"/>
<path class="st2" d="M1,129c-85.3,0-154.4,61-154.4,146.3c0.4,47.7,17.7,93.8,48.8,130c15.5,19,40.6,57.5,40.6,89.4H66
	c0-31.9,25.1-70.4,40.6-89.4c31.1-36.2,48.3-82.3,48.8-130C155.4,190,86.3,129,1,129z"/>
<path class="st3" d="M66,494.7H-64c0-9,7.3-16.3,16.3-16.3h99.1c7.2-38.1,36.6-75.8,42.7-83.4c25.2-29.2,40.7-65.6,44.5-104
	c0.7-8.9,8.1-15.8,17-15.8l0,0c-0.2,47.8-17.5,93.9-48.8,130c-6,7.4-36.3,46.2-40.6,82.2L66,494.7L66,494.7z"/>
<g>
	<path class="st4" d="M-106.8,234.7c-4.5,0.1-8.2-3.5-8.2-8c0-1.5,0.4-2.9,1.1-4.2c22.6-42.5,66.8-69.1,115-69.1
		c4.5,0,8.1,3.6,8.1,8.1s-3.6,8.1-8.1,8.1c-42.3,0-81.1,23.5-100.7,61C-101.2,233.1-103.9,234.7-106.8,234.7z"/>
	<path class="st4" d="M-120.9,291.5c-4.5,0-8.1-3.6-8.1-8.1c0-8.7,0.9-17.4,2.6-26c0.9-4.5,5.3-7.4,9.8-6.5c4.5,0.9,7.4,5.3,6.5,9.8
		c-1.6,7.5-2.5,15.1-2.6,22.8C-112.8,287.9-116.4,291.5-120.9,291.5z"/>
</g>
<path class="st5" d="M49.8,275.3c-18,0-32.5,14.6-32.5,32.5V324H-7.1v-16.3c0-18-14.6-32.5-32.5-32.5s-32.5,14.6-32.5,32.5
	c0,18,14.6,32.5,32.5,32.5h16.3v138.2h16.3V340.3h24.4v138.2h16.3V340.3h16.3c18,0,32.5-14.6,32.5-32.5S67.7,275.3,49.8,275.3z
	 M-39.6,324c-9,0-16.3-7.3-16.3-16.3s7.3-16.3,16.3-16.3s16.3,7.3,16.3,16.3V324H-39.6z M49.8,324H33.5v-16.3
	c0-9,7.3-16.3,16.3-16.3S66,298.8,66,307.8S58.7,324,49.8,324z"/>
<g>
	<rect x="-23.4" y="478.5" class="st6" width="16.3" height="16.3"/>
	<rect x="17.3" y="478.5" class="st6" width="16.3" height="16.3"/>
</g>
<g>
	<path class="st7" d="M41.6,592.2H-72.1l0,0V576l0,0h97.5C34.4,576,41.6,583.3,41.6,592.2L41.6,592.2L41.6,592.2z"/>
	<path class="st7" d="M-23.4,511h97.5l0,0v16.3l0,0H-39.6l0,0l0,0C-39.6,518.2-32.4,511-23.4,511z"/>
	<rect x="-72.1" y="543.5" class="st7" width="146.3" height="16.3"/>
</g>
<polygon class="st8" points="41.6,624.7 49.8,608.5 -47.8,608.5 -39.6,624.7 "/>
</svg>
