<?xml version="1.0" encoding="utf-8"?>
<!-- Generator: Adobe Illustrator 19.1.0, SVG Export Plug-In . SVG Version: 6.00 Build 0)  -->
<svg version="1.1" id="Layer_1" xmlns="http://www.w3.org/2000/svg" xmlns:xlink="http://www.w3.org/1999/xlink" x="0px" y="0px"
	 viewBox="-257 131 508 508" style="enable-background:new -257 131 508 508;" xml:space="preserve">
<style type="text/css">
	.st0{fill:#A6FFCB;}
	.st1{fill:#6DFCA7;}
	.st2{fill:#324A5E;}
	.st3{fill:#2B3B4E;}
	.st4{fill:#E6E9EE;}
	.st5{fill:#FFFFFF;}
	.st6{fill:#84DBFF;}
	.st7{fill:#CED5E0;}
</style>
<path class="st0" d="M251,385c0,140.4-113.6,254-254,254s-254-113.6-254-254S-143.4,131-3,131c110.8,0,204.8,70.8,239.6,169.6
	c7.6,21.2,12,43.6,13.6,66.8C251,373.4,251,379,251,385z"/>
<path class="st1" d="M-177.4,569.8C-131.8,612.6-70.6,639-3,639s128.8-26.4,174.4-69.2H-177.4z"/>
<g>
	<rect x="-13.4" y="305" class="st2" width="20.4" height="40"/>
	<rect x="91.4" y="240.2" class="st3" width="22.4" height="12"/>
	<path class="st2" d="M86.6,222.6l-14-2.8v52.4l14-2.8c4-0.8,6.8-4,6.8-8.4v-30.4C93.4,227,90.6,223.4,86.6,222.6z"/>
	<circle class="st4" cx="122.2" cy="246.2" r="12"/>
	<rect x="-119.4" y="240.2" class="st3" width="22.4" height="12"/>
	<path class="st2" d="M-92.6,222.6l14-2.8v52.4l-14-2.8c-4-0.8-6.8-4-6.8-8.4v-30.4C-99.4,227-96.6,223.4-92.6,222.6z"/>
	<g>
		<circle class="st4" cx="-128.2" cy="246.2" r="12"/>
		<path class="st4" d="M81.4,246.2c0,16-2.4,31.2-6.8,44.8C54.2,302.2,27,309-3,309s-57.2-6.8-77.2-17.6
			c-4.4-13.6-6.8-28.8-6.8-44.8s2.4-31.2,6.8-44.8c20-11.2,47.2-17.6,77.2-17.6s57.2,6.8,77.2,17.6C78.6,215,81.4,230.2,81.4,246.2z
			"/>
	</g>
	<circle class="st5" cx="34.6" cy="231.8" r="26.4"/>
	<circle class="st6" cx="34.6" cy="231.8" r="12"/>
	<circle class="st5" cx="-40.6" cy="231.8" r="26.4"/>
	<g>
		<path class="st7" d="M-37.4,291.4c-2.8-0.8-5.6-1.6-8-2.4c2-5.6,3.6-10.8,5.6-16.4c2.4,0.8,4.8,1.6,7.2,2
			C-34.2,280.2-35.8,285.8-37.4,291.4z"/>
		<path class="st7" d="M-18.2,295c-2.8-0.4-5.6-0.8-8.4-1.2c1.2-5.6,2-11.2,3.2-17.2c2.4,0.4,4.8,0.8,7.2,1.2
			C-16.6,283.4-17.4,289.4-18.2,295z"/>
		<path class="st7" d="M1.4,295.8c-2.8,0-5.6,0-8.4,0c0-5.6,0.4-11.6,0.4-17.2c2.4,0,4.8,0,7.2,0C1,284.2,1,290.2,1.4,295.8z"/>
		<path class="st7" d="M20.6,293.8c-2.8,0.4-5.6,0.8-8.4,1.2c-0.8-5.6-1.2-11.6-2-17.2c2.4-0.4,4.8-0.8,7.2-1.2
			C18.6,282.2,19.4,288.2,20.6,293.8z"/>
		<path class="st7" d="M39.4,289c-2.8,0.8-5.6,1.6-8,2.4c-1.6-5.6-3.2-11.2-4.4-16.8c2.4-0.8,4.8-1.2,7.2-2
			C35.8,277.8,37.4,283.4,39.4,289z"/>
	</g>
	<g>
		<polygon class="st2" points="23,488.2 8.2,562.6 47,541.4 45.4,488.2 		"/>
		<polygon class="st2" points="9,435 26.2,487 45.8,476.2 39.8,435 		"/>
	</g>
	<g>
		<path class="st5" d="M101,569.8C99.8,545,79.4,525,54.2,525C29,525,8.6,545,7.4,569.8H101z"/>
		<circle class="st5" cx="35.4" cy="483" r="15.6"/>
	</g>
	<g>
		<polygon class="st2" points="-51.4,488.2 -53,541.4 -14.2,562.6 -29,488.2 		"/>
		<polygon class="st2" points="-45.8,435 -51.8,476.2 -32.2,487 -15,435 		"/>
	</g>
	<g>
		<path class="st5" d="M-107,569.8c1.2-24.8,21.6-44.8,46.8-44.8s45.6,20,46.8,44.8H-107z"/>
		<circle class="st5" cx="-41.4" cy="483" r="15.6"/>
		<path class="st5" d="M48.6,376.2c6.4,18,10,39.2,10.4,61.6c-18,6-38.8,9.6-62,9.6s-44-3.6-62-9.6c0-22.4,4-43.6,10.4-61.6
			c6-17.6,14.4-30.4,22.8-38.4c9.2-1.6,18.8-2.4,28.8-2.4s19.6,0.8,28.8,2.4C34.2,345.8,42.6,358.6,48.6,376.2z"/>
	</g>
	<circle class="st6" cx="-40.6" cy="231.8" r="12"/>
	<polygon class="st2" points="55,341 39.4,365.4 91.4,393.8 91,393.8 123.4,456.6 137.8,450.2 113,384.2 	"/>
	<g>
		<path class="st5" d="M161,471.4c-4.8,2-10,0-12.4-4.8c-2.4-5.6-9.2-8.4-14.8-5.6c-5.6,2.4-8.4,9.2-5.6,14.8c2,4.8,0,10-4.8,12.4
			c-4.8,2-10,0-12.4-4.8c-6.8-15.2,0-32.8,15.2-39.2c15.2-6.8,32.8,0,39.2,15.2C167.8,463.8,165.8,469.4,161,471.4z"/>
		<circle class="st5" cx="102.6" cy="389.8" r="20.4"/>
	</g>
	<circle class="st4" cx="47.4" cy="355.4" r="26.8"/>
	<polygon class="st2" points="-61,341 -45.4,365.4 -97.4,393.8 -97,393.8 -129.4,456.6 -143.8,450.2 -119,384.2 	"/>
	<g>
		<path class="st5" d="M-167,471.4c4.8,2,10,0,12.4-4.8c2.4-5.6,9.2-8.4,14.8-5.6c5.6,2.4,8.4,9.2,5.6,14.8c-2,4.8,0,10,4.8,12.4
			c4.8,2,10,0,12.4-4.8c6.8-15.2,0-32.8-15.2-39.2c-15.2-6.8-32.8,0-39.2,15.2C-173.8,463.8-171.8,469.4-167,471.4z"/>
		<circle class="st5" cx="-108.6" cy="389.8" r="20.4"/>
	</g>
	<circle class="st4" cx="-53.4" cy="355.4" r="26.8"/>
</g>
</svg>
