<?xml version="1.0" encoding="utf-8"?>
<!-- Generator: Adobe Illustrator 19.1.0, SVG Export Plug-In . SVG Version: 6.00 Build 0)  -->
<svg version="1.1" id="Layer_1" xmlns="http://www.w3.org/2000/svg" xmlns:xlink="http://www.w3.org/1999/xlink" x="0px" y="0px"
	 viewBox="-259 133.1 503.9 503.9" style="enable-background:new -259 133.1 503.9 503.9;" xml:space="preserve">
<style type="text/css">
	.st0{fill:#EFC75E;}
	.st1{fill:#DEB957;}
	.st2{fill:#12D8FA;}
	.st3{fill:#F4F0D3;}
	.st4{fill:#E8E4C8;}
	.st5{fill:#8BA0AB;}
	.st6{fill:#324D5B;}
</style>
<path class="st0" d="M-102.2,488.3c22.1,22.1,22.1,58.3,0,80.3c-22.1,22.1-87,50.8-109.1,28.8c-22.1-22.1,6.7-87,28.8-109.1
	C-160.5,466.2-124.7,466.2-102.2,488.3z"/>
<path class="st1" d="M-168,477.6v2.4c0,41,33.5,74.4,74.4,74.4h1.6c11-21.3,7.5-48-10.6-66.2C-120,470.5-146.7,467-168,477.6z"/>
<path class="st2" d="M13.6,364.6c67.3,67.3,80.7,163.1,16.9,226.9L0.2,621.8c-63.8,63.8-19.7-89.4-87-156.8s-220.9-22.8-156.8-87
	l30.3-30.3C-149.5,283.9-53.8,297.3,13.6,364.6L13.6,364.6z"/>
<path class="st3" d="M236.5,141.7c20.5,20.5,11.4,150.4-114.2,276.5C40.3,499.7-11.3,528.4-11.3,528.4
	c-54.7,37-81.1,11.8-115.8-22.8s-60.3-61-22.8-115.8c0,0,29.1-52,110.7-133.9C86.4,130.3,216,120.8,236.5,141.7L236.5,141.7z"/>
<path class="st4" d="M10.4,510.7c-57.1,38.2-84.7,12.2-120.5-23.6c-36.2-36.2-62.6-63.4-23.6-120.5l5.9-9.5
	c-15.4,20.9-22.1,32.7-22.1,32.7c-37.4,54.7-11.8,81.1,22.8,115.8s61,59.5,115.8,22.8c0,0,24.4-13.8,66.6-48.8
	C26.5,501.7,10.4,510.7,10.4,510.7z"/>
<path class="st5" d="M104.5,273.6c19.3,19.3,19.3,50.4,0,69.7c-19.3,19.3-50.4,19.3-69.7,0c-19.3-19.3-19.3-50.4,0-69.7
	S85.6,254.3,104.5,273.6z"/>
<path class="st2" d="M-9.3,395.7c9.8,9.8-9.1,44.9-57.1,92.9s-77.2,61-87,50.8c-9.8-9.8,2.8-39,50.8-87
	C-54.2,404.4-19.5,385.5-9.3,395.7z"/>
<path class="st6" d="M69.9,270.9c9.8,0,19.3,3.9,26.4,11c7.1,7.1,11,16.5,11,26.4c0,9.8-3.9,19.3-11,26.4c-7.1,7.1-16.5,11-26.4,11
	s-19.3-3.9-26.4-11c-7.1-7.1-11-16.5-11-26.4c0-9.8,3.9-19.3,11-26.4C50.6,274.8,60,270.9,69.9,270.9 M69.9,259
	c-12.6,0-25.2,4.7-34.7,14.6c-19.3,19.3-19.3,50.4,0,69.7c9.5,9.5,22.1,14.6,34.7,14.6s25.2-4.7,34.7-14.6
	c19.3-19.3,19.3-50.4,0-69.7C95.1,263.8,82.5,259,69.9,259z"/>
<path class="st2" d="M116,151.5c3.5,26.4,17.7,54.4,41,77.6c20.5,20.1,44.1,33.5,67.3,39c26-64.6,24-114.2,12.2-126.4
	C225,129.9,177.8,127.9,116,151.5z"/>
</svg>
