<?xml version="1.0" encoding="utf-8"?>
<!-- Generator: Adobe Illustrator 19.1.0, SVG Export Plug-In . SVG Version: 6.00 Build 0)  -->
<svg version="1.1" id="Layer_1" xmlns="http://www.w3.org/2000/svg" xmlns:xlink="http://www.w3.org/1999/xlink" x="0px" y="0px"
	 viewBox="-259 132.9 504.1 504.1" style="enable-background:new -259 132.9 504.1 504.1;" xml:space="preserve">
<style type="text/css">
	.st0{fill:#A6FFCB;}
	.st1{fill:#1FA2FF;}
	.st2{fill:#E4E7E7;}
	.st3{fill:#3E4E5C;}
	.st4{fill:#12D8FA;}
</style>
<path class="st0" d="M141.1,362.5l-69.7,69.7l-83.1,83.1c-35.4,35.4-92.6,36.2-127.2,1.6c-34.7-34.7-33.9-91.8,1.6-127.2l72.9-72.9
	l80-80c12.6-12.6,33.1-12.6,45.7,0l80,80C153.8,329.4,153.8,349.9,141.1,362.5z M245.1,461.7l-5.5,5.5l-49.2,49.2l-7.5,7.5l-113,113
	l-5.5-5.5l-5.5-5.5l-60.3-60.3l-5.5-5.5l77.6-77.6l-175.3-174.9l-77.6,77.2l-11-11l-60.3-60.3l-5.5-5.1l164.2-164.6l11-11l11,11
	l65.8,65.8l-5.5,5.5l-52.4,52.4l-7.9,7.9l-20.1,20.1L82.5,470.8l75.2-75.2l11-11l11,11L245.1,461.7L245.1,461.7z M-182.2,363.3
	l43.7-43.7l-22.1-22.1l-43.7,43.7L-182.2,363.3z M-215.3,330.2l44.1-43.7l-22.1-22.1l-43.7,44.1
	C-236.9,308.5-215.3,330.2-215.3,330.2z M-182.2,253.4l22.1,22.1l43.7-43.7l-22.1-22.1L-182.2,253.4z M-83.7,154.9l-43.7,43.7
	l22.1,22.1l43.7-43.7C-61.7,177-83.7,154.9-83.7,154.9z M-72.7,253.4l43.7-43.7L-51,187.6l-43.7,44.1
	C-94.8,231.7-72.7,253.4-72.7,253.4z M-83.7,264.4l-21.7-21.7l-44.1,43.7l22.1,22.1L-83.7,264.4z M223.1,461.7L201,439.7l-43.7,43.7
	l22.1,22.1L223.1,461.7z M168.3,516.5l-22.1-22.1l-43.7,44.1l22.1,22.1L168.3,516.5z M69.9,614.9l43.7-43.7l-22.1-22.1l-43.7,43.7
	L69.9,614.9z M15.1,560.2l22.1,22.1l43.7-43.7l-22.1-22.1L15.1,560.2z M69.9,505.5l22.1,22.1l43.7-44.1l-22.1-22.1L69.9,505.5z
	 M124.6,450.7l22.1,22.1l43.7-43.7L168.3,407L124.6,450.7z"/>
<path class="st1" d="M168.3,184.1c14.2,0,25.6,11.4,25.6,25.6s-11.4,25.6-25.6,25.6s-25.6-11.4-25.6-25.6S154.1,184.1,168.3,184.1z"
	/>
<path id="SVGCleanerId_0" class="st2" d="M237.2,271.5c-32.7,32.7-88.6,29.9-124.8-5.9c-36.2-36.2-39-91.8-5.9-124.5
	C106.5,141.1,237.2,271.5,237.2,271.5z"/>
<path class="st3" d="M50.6,327.4c17.7,17.7,17.7,46.5,0,63.8c-17.7,17.7-46.1,17.7-63.8,0s-17.7-46.5,0-63.8
	C4.5,309.7,32.8,309.7,50.6,327.4z"/>
<path class="st4" d="M42.3,335.7c13,13,13,34.3,0,47.3C29.3,396,8,396-5,383c-13-13-13-34.3,0-47.3C8,322.7,29.3,322.7,42.3,335.7z"
	/>
<path class="st4" d="M4.1,499.5c-35.4,35.4-92.6,36.2-127.2,1.6c-34.7-34.7-33.9-91.8,1.6-127.2l-15.8,15.8
	c-35.4,35.4-36.2,92.6-1.6,127.2s91.8,33.9,127.2-1.6L4.1,499.5z"/>
<path class="st1" d="M-125.1,377.5l-12.2,12.2c-1.2,1.2-2,2.4-3.2,3.2l125.2,125.2c1.2-1.2,2.4-2,3.2-3.2l12.2-12.2
	C0.2,502.7-125.1,377.5-125.1,377.5z"/>
<g>
	<path id="SVGCleanerId_0_1_" class="st0" d="M237.2,271.5c-32.7,32.7-88.6,29.9-124.8-5.9c-36.2-36.2-39-91.8-5.9-124.5
		C106.5,141.1,237.2,271.5,237.2,271.5z"/>
</g>
<path class="st4" d="M128.2,249.8c-34.7-34.7-49.2-76.4-21.7-108.7c-32.7,32.7-29.9,88.6,5.9,124.5c36.2,36.2,91.8,39,124.8,5.9
	C204.6,299.1,162.8,284.1,128.2,249.8z"/>
</svg>
