<?xml version="1.0" encoding="utf-8"?>
<!-- Generator: Adobe Illustrator 19.1.0, SVG Export Plug-In . SVG Version: 6.00 Build 0)  -->
<svg version="1.1" id="Layer_1" xmlns="http://www.w3.org/2000/svg" xmlns:xlink="http://www.w3.org/1999/xlink" x="0px" y="0px"
	 viewBox="-259 132.9 504.1 504.1" style="enable-background:new -259 132.9 504.1 504.1;" xml:space="preserve">
<style type="text/css">
	.st0{fill:#C4C8CA;}
	.st1{fill:#D0D3D5;}
	.st2{fill:#DADFE1;}
	.st3{fill:#A6FFCB;}
	.st4{fill:#12D8FA;}
	.st5{fill:#E1E5E7;}
	.st6{fill:#F2F1EF;}
	.st7{fill:#CECDCB;}
</style>
<path class="st0" d="M231.1,247.1v-2l-169.7,2h-306.8v343.4c0,25.6,43.3,46.1,96.9,46.1h268.2c61.8,0,111.9-24,111.9-53.2v-336
	C231.1,247.5,231.1,247.1,231.1,247.1z"/>
<path class="st1" d="M-182.4,262.8h-63v327.7c0,19.7,26.4,36.6,63,43.3V262.8z M231.1,251h-63v380.5c37.4-8.7,63-26.8,63-48
	L231.1,251L231.1,251z"/>
<path class="st2" d="M119.3,530.7h-268.2c-53.6,0-96.9-20.9-96.9-46.1v-87v193.4c0,25.6,43.3,46.1,96.9,46.1h268.2
	c61.8,0,111.9-24,111.9-53.2V385.3v92.2C231.1,506.6,181.1,530.7,119.3,530.7z M231.1,359.3c0,29.5-52.4,53.2-116.6,53.2h-267.4
	c-51.2,0-92.6-20.5-92.6-46.1v-24.8v131.2c0,25.6,43.3,46.1,96.9,46.1h268.2c61.8,0,111.9-24,111.9-53.2V341.6
	C231.1,347.9,231.1,353.8,231.1,359.3z M-152.9,400.7h267.4c64.6,0,116.6-23.6,116.6-53.2V247.1h-476.6v107.5
	C-245.4,380.2-204.1,400.7-152.9,400.7z"/>
<path class="st3" d="M18.5,365.2c6.7,0,11.8-5.1,11.8-11.8s-5.1-11.8-11.8-11.8s-11.8,5.1-11.8,11.8S11.8,365.2,18.5,365.2z
	 M18.5,459.8c-6.7,0-11.8,5.1-11.8,11.8s5.1,11.8,11.8,11.8s11.8-5.1,11.8-11.8S25.2,459.8,18.5,459.8z M18.5,577.9
	c-6.7,0-11.8,5.1-11.8,11.8c0,6.7,5.1,11.8,11.8,11.8s11.8-5.1,11.8-11.8C30.3,583.4,25.2,577.9,18.5,577.9z"/>
<path class="st4" d="M57.8,341.6c-6.7,0-11.8,5.1-11.8,11.8s5.1,11.8,11.8,11.8s11.8-5.1,11.8-11.8S64.5,341.6,57.8,341.6z
	 M97.2,365.2c6.7,0,11.8-5.1,11.8-11.8s-5.1-11.8-11.8-11.8s-11.8,5.1-11.8,11.8S90.5,365.2,97.2,365.2z M57.8,459.8
	c-6.7,0-11.8,5.1-11.8,11.8s5.1,11.8,11.8,11.8s11.8-5.1,11.8-11.8S64.5,459.8,57.8,459.8z M97.2,459.8c-6.7,0-11.8,5.1-11.8,11.8
	s5.1,11.8,11.8,11.8s11.8-5.1,11.8-11.8S103.9,459.8,97.2,459.8z M57.8,577.9c-6.7,0-11.8,5.1-11.8,11.8c0,6.7,5.1,11.8,11.8,11.8
	s11.8-5.1,11.8-11.8C69.7,583.4,64.5,577.9,57.8,577.9z M97.2,577.9c-6.7,0-11.8,5.1-11.8,11.8c0,6.7,5.1,11.8,11.8,11.8
	s11.8-5.1,11.8-11.8C109,583.4,103.9,577.9,97.2,577.9z"/>
<path class="st0" d="M-44.6,325.9H-147c-2.4,0-3.9,1.6-3.9,3.9v11.8c0,2.4,1.6,3.9,3.9,3.9h102.4c2.4,0,3.9-1.6,3.9-3.9v-11.8
	C-40.6,327.8-42.2,325.9-44.6,325.9z M-44.6,357.4H-147c-2.4,0-3.9,1.6-3.9,3.9v11.8c0,2.4,1.6,3.9,3.9,3.9h102.4
	c2.4,0,3.9-1.6,3.9-3.9v-11.8C-40.6,359.3-42.2,357.4-44.6,357.4z M-44.6,444H-147c-2.4,0-3.9,1.6-3.9,3.9v11.8
	c0,2.4,1.6,3.9,3.9,3.9h102.4c2.4,0,3.9-1.6,3.9-3.9V448C-40.6,446-42.2,444-44.6,444z M-44.6,475.5H-147c-2.4,0-3.9,1.6-3.9,3.9
	v11.8c0,2.4,1.6,3.9,3.9,3.9h102.4c2.4,0,3.9-1.6,3.9-3.9v-11.8C-40.6,477.5-42.2,475.5-44.6,475.5z M-44.6,562.2H-147
	c-2.4,0-3.9,1.6-3.9,3.9v11.8c0,2.4,1.6,3.9,3.9,3.9h102.4c2.4,0,3.9-1.6,3.9-3.9v-11.8C-40.6,564.1-42.2,562.2-44.6,562.2z
	 M-44.6,593.7H-147c-2.4,0-3.9,1.6-3.9,3.9v11.8c0,2.4,1.6,3.9,3.9,3.9h102.4c2.4,0,3.9-1.6,3.9-3.9v-11.8
	C-40.6,595.6-42.2,593.7-44.6,593.7z"/>
<path class="st5" d="M168.1,525.5v106.3c37.4-8.7,63-26.8,63-48V385.3v92.2C231.1,498.4,205.5,516.9,168.1,525.5z M-182.4,527.9
	c-36.6-6.7-63-23.6-63-43.3v-87v193.4c0,19.7,26.4,36.6,63,43.3V527.9z M-182.4,410.1c-36.6-6.3-63-23.2-63-43.7v-24.8v131.2
	c0,19.7,26.4,36.6,63,43.3V410.1z M231.1,359.3c0,20.5-25.6,38.6-63,47.3v107.1c37.4-8.7,63-26.8,63-48V342L231.1,359.3L231.1,359.3
	z M-182.4,262.8h-63v91.8c0,20.5,26.4,37.4,63,43.7V262.8z M168.1,251v143.8c37.4-8.7,63-26.8,63-47.3V251H168.1z"/>
<path class="st6" d="M140.6,191.6c-6.7-32.7-63-58.7-132.7-58.7c-54,0-100,14.2-121.3,36.2c-6.3-0.8-13-1.6-20.1-1.6
	c-37,0-67,16.1-67,33.9c0,3.5,0.8,9.1,3.2,12.2c-28.8,8.3-47.7,20.9-47.7,38.2c0,26,43.3,46.9,96.9,46.9h268.2
	c61.8,0,111.9-24,111.9-54C231.1,217.9,192.2,196.3,140.6,191.6z"/>
<path class="st7" d="M-9.1,180.1c-37,0-67,13.4-67,33.5s29.9,33.5,67,33.5s67-15,67-33.5S27.9,180.1-9.1,180.1z M24,206.1
	l-38.6,20.1c-1.6,0.8-3.9,1.2-5.9,1.2c-2.4,0.4-5.1,0-6.7-0.8l-15.4-7.9c-2.8-1.6-2.8-3.9,0-5.1c2.8-1.6,7.5-1.6,10.2,0l11.4,5.9
	l35.1-18.1c2.8-1.6,7.5-1.6,10.2,0C26.7,202.6,26.7,205,24,206.1z"/>
</svg>
