<?xml version="1.0" encoding="utf-8"?>
<!-- Generator: Adobe Illustrator 19.1.0, SVG Export Plug-In . SVG Version: 6.00 Build 0)  -->
<svg version="1.1" id="Layer_1" xmlns="http://www.w3.org/2000/svg" xmlns:xlink="http://www.w3.org/1999/xlink" x="0px" y="0px"
	 viewBox="-259 132.9 504.1 504.1" style="enable-background:new -259 132.9 504.1 504.1;" xml:space="preserve">
<style type="text/css">
	.st0{fill:#324D5B;}
	.st1{fill:#A6FFCB;}
	.st2{fill:#50FF97;}
	.st3{fill:#2D4552;}
	.st4{fill:#E4E7E7;}
	.st5{fill:#D8DBDB;}
	.st6{fill:#12D8FA;}
	.st7{fill:#1FA2FF;}
	.st8{fill:#FFFFFF;}
	.st9{fill:#F2F2F2;}
	.st10{fill:#2F4956;}
</style>
<g>
	<path class="st0" d="M-6.7,518.8c-26,0-47.3,21.3-47.3,47.3s21.3,47.3,47.3,47.3s47.3-21.3,47.3-47.3S19.3,518.8-6.7,518.8z
		 M119.3,487.3c-26,0-47.3,21.3-47.3,47.3c0,26,21.3,47.3,47.3,47.3s47.3-21.3,47.3-47.3C166.6,508.6,145.3,487.3,119.3,487.3z
		 M-132.8,487.3c-26,0-47.3,21.3-47.3,47.3c0,26,21.3,47.3,47.3,47.3s47.3-21.3,47.3-47.3C-85.5,508.6-106.8,487.3-132.8,487.3z"/>
	<path class="st1" d="M-151.7,366.8c80-49.2,209.5-49.2,289.5,0s80,129.2,0,178c-80,49.2-209.5,49.2-289.5,0
		C-231.6,495.6-231.6,416.1-151.7,366.8z"/>
	<path class="st2" d="M-132,533c-77.2-47.7-80-123.7-7.9-172.9c-3.9,2-7.9,4.3-11.8,6.7c-80,49.2-80,129.2,0,178
		c80,49.2,209.5,49.2,289.5,0c2.8-1.6,5.5-3.5,7.9-5.1C65.3,582.3-56,579.9-132,533z"/>
	<path class="st0" d="M-185.2,279c98.5-58.3,258-58.3,356.4,0s98.5,153.2,0,211.5s-258,58.3-356.4,0S-283.6,337.7-185.2,279z"/>
	<path class="st3" d="M187.4,475.1c-98.5,58.3-258,58.3-356.4,0c-79.6-47.3-94.9-117.8-46.5-174.1c-66.6,58.3-56.3,138.2,30.3,189.8
		c98.5,58.3,258,58.3,356.4,0c18.9-11.4,34.3-24,46.1-37.4C208.7,461,198.8,468,187.4,475.1z"/>
	<path class="st4" d="M-6.7,156.5c87,0,157.5,70.5,157.5,157.5S80.3,440-6.7,440s-157.5-39-157.5-126S-93.8,156.5-6.7,156.5z"/>
	<path class="st5" d="M-164.3,314c0,86.6,70.1,125.6,156.4,126h1.2V156.5C-93.8,156.5-164.3,227-164.3,314z"/>
	<path class="st6" d="M-6.7,440.1c35.4,0,68.1-6.3,94.5-20.1V314c0-52.4-42.1-94.5-94.5-94.5s-94.5,42.1-94.5,94.5v106
		C-74.9,433.8-42.2,440.1-6.7,440.1z"/>
	<path class="st7" d="M-101.3,314v106c26,13.4,58.7,20.1,93.7,20.1h0.8V219.5C-59.1,219.5-101.3,262.1-101.3,314z"/>
	<path class="st8" d="M-6.7,282.5c26,0,47.3,21.3,47.3,47.3s-21.3,47.3-47.3,47.3S-54,355.8-54,329.8S-32.7,282.5-6.7,282.5z"/>
	<path class="st9" d="M-6.7,282.5c-26,0-47.3,21.3-47.3,47.3s21.3,47.3,47.3,47.3C-6.7,377.1-6.7,282.5-6.7,282.5z"/>
	<path class="st0" d="M-6.7,306.2c13,0,23.6,10.6,23.6,23.6S6.3,353.4-6.7,353.4s-23.6-10.6-23.6-23.6S-19.7,306.2-6.7,306.2z"/>
	<path class="st10" d="M-6.7,306.2c-13,0-23.6,10.6-23.6,23.6s10.6,23.6,23.6,23.6C-6.7,353.4-6.7,306.2-6.7,306.2z"/>
</g>
</svg>
