<?xml version="1.0" encoding="utf-8"?>
<!-- Generator: Adobe Illustrator 19.1.0, SVG Export Plug-In . SVG Version: 6.00 Build 0)  -->
<svg version="1.1" id="Ebene_1" xmlns="http://www.w3.org/2000/svg" xmlns:xlink="http://www.w3.org/1999/xlink" x="0px" y="0px"
	 viewBox="0 0 1024 768" style="enable-background:new 0 0 1024 768;" xml:space="preserve">
<style type="text/css">
	.st0{fill:#6772E5;}
	.st1{fill:#55FFFF;}
</style>
<g>
	<g>
		<path class="st0" d="M157.9,512.2l-12.6,2l15.9,68.9l2.3,15.6l0.5,0.1l3.3-15.7l22.8-81.8H205l22.9,81.8l3.4,16.1h0.5l2.5-16.1
			l15.6-68.9l-12.7-2v-10.9h39.4v10.9l-10,1.3l-27,112.9h-15l-24.5-86.8l-2.2-11.3h-0.5l-2.1,11.3l-24.9,86.8h-14.9l-27-112.9
			l-10-1.3v-10.9h39.3L157.9,512.2L157.9,512.2z"/>
		<path class="st0" d="M350.7,612.6c-2.9,5-6.6,8.8-11.2,11.5s-9.8,4-15.8,4c-10,0-17.8-3.2-23.4-9.7s-8.4-16.6-8.4-30.2v-41.5
			l-10.6-2.4v-10.9h10.6h16.8v55c0,9.9,1.4,16.7,4.3,20.5c2.9,3.7,7.4,5.6,13.5,5.6c6,0,10.9-1.2,14.8-3.7c3.9-2.4,6.8-5.9,8.8-10.4
			v-53.7l-12.3-2.4v-10.9h12.3h16.8v79.7l10.6,2.4v10.8h-25.6L350.7,612.6z"/>
		<path class="st0" d="M390.7,544.3v-10.9h28.9l1.6,13.5c2.6-4.8,5.8-8.5,9.7-11.2c3.8-2.7,8.2-4,13.1-4c1.3,0,2.7,0.1,4,0.3
			c1.4,0.2,2.5,0.4,3.2,0.6l-2.2,15.7l-9.5-0.5c-4.4,0-8.1,1-11.1,3.1s-5.3,5-7,8.8v53.4l13.9,2.4v10.8h-44.5v-10.8l13.9-2.4v-66.4
			L390.7,544.3z"/>
		<path class="st0" d="M484.7,613.1h37.6l1.4-14.3h14.2v27.6h-73.1v-11.9l49.8-67.7h-33.7l-1.3,14.3h-14.3v-27.7h69.8v11.5
			L484.7,613.1z"/>
		<path class="st0" d="M639.3,583.4c0,13.4-3.2,24.2-9.6,32.4c-6.4,8.2-15.2,12.3-26.3,12.3c-6,0-11.2-1.2-15.7-3.5
			c-4.4-2.3-8.1-5.7-11.1-10.3l-1.5,11.9h-14.5V505.6l-13.9-2.4v-10.9h30.6v52.1c2.9-4.1,6.5-7.3,10.8-9.5s9.3-3.3,15-3.3
			c11.3,0,20.2,4.6,26.6,13.7c6.4,9.2,9.5,21.2,9.5,36.2v1.9L639.3,583.4L639.3,583.4z M622.5,581.6c0-10.7-1.9-19.4-5.8-26.1
			c-3.9-6.7-9.8-10.1-17.7-10.1c-5.2,0-9.5,1.3-13.1,3.8c-3.5,2.5-6.4,5.9-8.5,10.1v41.1c2.1,4.3,4.9,7.7,8.6,10.2
			c3.6,2.5,8,3.8,13.1,3.8c7.9,0,13.7-2.8,17.6-8.5c3.8-5.7,5.7-13.2,5.7-22.5v-1.8H622.5z"/>
		<path class="st0" d="M721.9,612.6c-2.9,5-6.6,8.8-11.2,11.5c-4.6,2.7-9.8,4-15.8,4c-10,0-17.8-3.2-23.4-9.7
			c-5.6-6.5-8.4-16.6-8.4-30.2v-41.5l-10.6-2.4v-10.9h10.6h16.8v55c0,9.9,1.4,16.7,4.3,20.5c2.9,3.7,7.4,5.6,13.5,5.6
			c6,0,10.9-1.2,14.8-3.7c3.9-2.4,6.8-5.9,8.8-10.4v-53.7l-12.3-2.4v-10.9h12.3H738v79.7l10.6,2.4v10.8H723L721.9,612.6z"/>
		<path class="st0" d="M761.9,544.3v-10.9h28.9l1.6,13.5c2.6-4.8,5.8-8.5,9.7-11.2c3.8-2.7,8.2-4,13.1-4c1.3,0,2.7,0.1,4,0.3
			c1.4,0.2,2.5,0.4,3.2,0.6l-2.2,15.7l-9.5-0.5c-4.4,0-8.1,1-11.1,3.1s-5.3,5-7,8.8v53.4l13.9,2.4v10.8H762v-10.8l13.9-2.4v-66.4
			L761.9,544.3z"/>
		<path class="st0" d="M832.4,581.6c0-15,3.2-27,9.7-36.2s15.4-13.7,26.8-13.7c5.8,0,10.9,1.1,15.2,3.4c4.4,2.3,8,5.6,11,10
			l1.5-11.7h14.1v91.8c0,12-3.3,21.5-10,28.4c-6.6,6.9-16.1,10.4-28.3,10.4c-4.4,0-9.2-0.6-14.4-1.8s-9.7-2.9-13.6-5l4.3-13.1
			c3.1,1.7,6.8,3,11.1,4.1s8.4,1.6,12.4,1.6c7.5,0,13-2.1,16.5-6.4c3.5-4.2,5.2-10.3,5.2-18.1v-8.9c-3,3.9-6.6,6.8-10.8,8.9
			c-4.2,2-9,3-14.5,3c-11.3,0-20.2-4.1-26.6-12.4c-6.5-8.2-9.7-19-9.7-32.4L832.4,581.6L832.4,581.6z M849.2,583.4
			c0,9.3,2,16.8,5.9,22.5s9.9,8.5,17.9,8.5c5,0,9.3-1.2,12.7-3.5s6.2-5.6,8.4-9.8v-42.8c-2.2-4-5-7.1-8.4-9.4
			c-3.5-2.3-7.6-3.5-12.5-3.5c-8,0-14,3.4-18,10.1c-4,6.8-6,15.4-6,26L849.2,583.4L849.2,583.4z"/>
	</g>
	<g>
		<path class="st0" d="M353.3,514.2c4.7,0,8.5-3.8,8.5-8.5v-8.5h8.5c4.7,0,8.5-3.8,8.5-8.5s-3.8-8.5-8.5-8.5h-8.5v-8.5
			c0-4.7-3.8-8.5-8.5-8.5s-8.5,3.8-8.5,8.5v8.5h-8.5c-4.7,0-8.5,3.8-8.5,8.5s3.8,8.5,8.5,8.5h8.5v8.5
			C344.8,510.4,348.6,514.2,353.3,514.2z"/>
		<g>
			<path class="st1" d="M666.2,121c6.1-34.4,5.1-72.3,5.1-72.3s-93.6-2.5-120.2,24c-13.4,13.5-20,31.2-19.9,48.7
				c0.2,17.2,6.8,34.3,19.9,47.4c4.3,4.3,9,7.9,14.1,10.7c26,15.1,59.8,11.5,82-10.7C656.9,159.2,662.7,140.7,666.2,121z
				 M574.4,146.3h-0.7l1.4-1.3C574.8,145.5,574.6,145.9,574.4,146.3z"/>
			<path class="st1" d="M276.5,324.6c-14,0-25.5,11.4-25.5,25.5c0,14,11.4,25.5,25.5,25.5c14,0,25.5-11.4,25.5-25.5
				C302,336.1,290.5,324.6,276.5,324.6z M276.5,358.6c-4.7,0-8.5-3.8-8.5-8.5s3.8-8.5,8.5-8.5s8.5,3.8,8.5,8.5
				C285,354.8,281.2,358.6,276.5,358.6z"/>
			<path class="st1" d="M684.1,426.5c-14,0-25.5,11.4-25.5,25.5c0,14,11.4,25.5,25.5,25.5s25.5-11.4,25.5-25.5
				C709.6,438,698.2,426.5,684.1,426.5z M684.1,460.5c-4.7,0-8.5-3.8-8.5-8.5s3.8-8.5,8.5-8.5s8.5,3.8,8.5,8.5
				S688.8,460.5,684.1,460.5z"/>
		</g>
		<g>
			<path class="st0" d="M429.4,111.4c-12.7-24.6-38.4-41.6-67.9-41.6c-42.1,0-76.4,34.3-76.4,76.4c0,29,16.5,55.3,41.9,68.1
				c-5.2,10.4-8,21.9-8,33.8c0,29,16.5,55.3,41.9,68.1c-5.2,10.4-8,21.9-8,33.8c0,39.4,30,72,68.4,76c4,38.4,36.6,68.4,76,68.4
				s72-30,76-68.4c38.4-4,68.4-36.6,68.4-76c0-11.9-2.8-23.3-8-33.8c25.4-12.9,41.9-39.1,41.9-68.1c0-11.9-2.8-23.3-8-33.8
				c25.4-12.9,41.9-39.1,41.9-68.1c0-25.6-13-49.3-34.1-63.4c5.2-33.2,4.4-66.9,4.3-68.4c-0.1-4.5-3.8-8.1-8.3-8.3
				c-9.9-0.2-98-1.7-126.4,26.5c-6.5,6.5-11.6,14.1-15.3,22.2c-13.1-22-42-53.1-100.4-53.1c-4.7,0-8.5,3.8-8.5,8.5v34
				c0,2.4,1,4.7,2.9,6.4c1.8,1.6,4.2,2.4,6.6,2.1c0.6-0.1,52-5.8,82.9,18.9c-5.2-1.1-10.5-1.8-15.9-1.8
				C467.7,69.9,442.1,86.8,429.4,111.4z M444.5,35.2c-2.5,0-4.7,0.1-6.7,0.1V19.2c30.3,1.8,50.3,13.4,63.3,26
				C480.7,36.9,458.9,35.2,444.5,35.2z M497.3,86.9c9,0,17.8,2,25.7,5.9c0,0.4,0.1,0.9,0.2,1.3c0.1,1,0.2,2,0.4,3
				c0.2,1.4,0.4,2.8,0.6,4.2c0.2,1,0.4,1.9,0.6,2.9c0.3,1.4,0.7,2.7,1.1,4.1c0.3,0.9,0.5,1.8,0.8,2.8c0.4,1.4,0.9,2.7,1.5,4
				c0.3,0.9,0.7,1.7,1.1,2.6c0.6,1.3,1.2,2.6,1.9,3.9c0.4,0.8,0.8,1.6,1.2,2.4c0.7,1.3,1.5,2.6,2.4,3.9c0.5,0.7,0.9,1.4,1.4,2.1
				c0.9,1.4,2,2.7,3,4c0.4,0.6,0.8,1.1,1.3,1.7c1.5,1.8,3.1,3.6,4.8,5.3c2.2,2.2,4.5,4.1,6.8,6c0.7,0.6,1.5,1.1,2.2,1.6
				c0.8,0.6,1.6,1.2,2.4,1.8c-0.9,13.3-6.2,25.8-15,35.6c-0.2-0.2-0.5-0.3-0.7-0.5c-2.8-1.9-5.7-3.7-8.7-5.2c-0.4-0.2-0.7-0.4-1-0.6
				c-3.1-1.5-6.3-2.8-9.6-3.9c-0.6-0.2-1.2-0.4-1.9-0.6c-3.3-1-6.6-1.8-9.9-2.4c-0.6-0.1-1.2-0.2-1.7-0.2c-3.5-0.5-7.1-0.8-10.7-0.8
				s-7.2,0.3-10.7,0.8c-0.6,0.1-1.2,0.1-1.7,0.2c-3.4,0.6-6.7,1.4-9.9,2.4c-0.6,0.2-1.2,0.4-1.9,0.6c-3.3,1.1-6.5,2.4-9.6,3.9
				c-0.4,0.2-0.7,0.4-1.1,0.6c-3,1.5-5.9,3.3-8.7,5.2c-0.2,0.2-0.5,0.3-0.7,0.4c-9.7-10.8-15.2-24.9-15.2-39.6
				C437.9,113.5,464.5,86.9,497.3,86.9z M556.2,255.7c-0.1,0.8-0.3,1.6-0.4,2.3c-0.3,1.7-0.6,3.4-1,5c-0.2,0.9-0.5,1.8-0.8,2.7
				c-0.5,1.5-1,3-1.5,4.4c-0.4,0.9-0.8,1.9-1.2,2.8c-0.3,0.7-0.7,1.5-1.1,2.2c-0.3,0.1-0.6,0.2-0.9,0.2c-3,0.7-6.1,1.4-9.2,2.5
				c-17,5.9-31.4,17.7-40.5,33.1c-0.8,1.3-1.5,2.6-2.2,4c-0.7-1.3-1.4-2.7-2.2-3.9c-9.1-15.5-23.5-27.3-40.5-33.2
				c-3.1-1.1-6.2-1.9-9.2-2.5c-0.3-0.1-0.6-0.2-0.9-0.2c-0.4-0.8-0.8-1.5-1.2-2.3c-0.4-0.9-0.8-1.8-1.2-2.7
				c-0.6-1.4-1.1-2.9-1.5-4.4c-0.3-0.9-0.6-1.8-0.8-2.7c-0.4-1.6-0.7-3.3-1-5c-0.1-0.8-0.3-1.6-0.4-2.4c-0.3-2.5-0.5-5-0.5-7.5
				c0-14.5,5.3-28.4,14.9-39.3c1.6-1.9,3.4-3.6,5.3-5.3c10.9-9.6,24.9-14.9,39.3-14.9c14.5,0,28.4,5.3,39.3,14.9
				c1.9,1.6,3.6,3.4,5.3,5.3c9.6,10.9,14.9,24.9,14.9,39.3C556.7,250.7,556.6,253.3,556.2,255.7z M302,146.3
				c0-32.8,26.7-59.4,59.4-59.4s59.4,26.7,59.4,59.4c0,9.8-2.5,19.3-7.1,27.8c-6-1.5-12.2-2.3-18.4-2.3c-23.1,0-44.7,10.5-59.1,28.2
				C315.6,190.3,302,169.5,302,146.3z M335.9,248.2c0-11.9,3.5-23.3,10.1-33.1c11-16.5,29.5-26.4,49.3-26.4c6.7,0,13.3,1.1,19.7,3.4
				c7.3,2.5,14.1,6.5,20,11.8c-0.2,0.2-0.3,0.5-0.4,0.7c-1.9,2.8-3.7,5.7-5.2,8.7c-0.2,0.3-0.4,0.7-0.6,1c-1.5,3.1-2.8,6.3-3.9,9.6
				c-0.2,0.6-0.4,1.2-0.6,1.9c-1,3.3-1.8,6.6-2.4,9.9c-0.1,0.6-0.2,1.1-0.2,1.7c-0.5,3.5-0.8,7.1-0.8,10.7c0,3.1,0.2,6.1,0.6,9.1
				c0.1,0.7,0.2,1.4,0.3,2c0.4,3,1,5.9,1.8,8.8c0.1,0.4,0.3,0.8,0.4,1.2c0.4,1.5,0.8,3,1.4,4.5c-1.1,0.1-2.2,0.2-3.3,0.3
				c-1.1,0.1-2.2,0.2-3.3,0.3c-2,0.3-3.9,0.7-5.9,1.1c-0.9,0.2-1.8,0.4-2.7,0.6c-2.8,0.7-5.6,1.6-8.2,2.6c-0.2,0.1-0.4,0.2-0.6,0.3
				c-2.5,1-4.9,2.1-7.2,3.3c-0.9,0.5-1.8,1-2.6,1.5c-1.6,0.9-3.2,1.9-4.8,2.9c-1,0.7-1.9,1.4-2.8,2.1c-1.4,1-2.8,2.1-4.1,3.3
				c-0.9,0.8-1.8,1.6-2.7,2.4c-1.3,1.2-2.5,2.5-3.7,3.8c-0.8,0.9-1.6,1.7-2.4,2.6c-0.3,0.3-0.6,0.6-0.9,1
				C349.4,292.3,335.9,271.4,335.9,248.2z M369.9,350.1c0-11.9,3.5-23.3,10.1-33.1c11-16.5,29.5-26.4,49.3-26.4
				c2.6,0,5.4,0.2,8.4,0.6c3.6,0.5,7.4,1.4,11.3,2.8c13.2,4.6,24.4,13.7,31.5,25.8c1.2,2.1,2.3,4.2,3.2,6.4c0.3,0.6,0.5,1.3,0.8,1.9
				c0.7,1.6,1.2,3.3,1.7,5c0.2,0.7,0.4,1.3,0.6,2c0.6,2.3,1.1,4.6,1.4,6.9v0.1c-1.9,0.2-3.9,0.6-5.8,0.9c-0.2,0-0.4,0.1-0.6,0.1
				c-2.3,0.5-4.6,1.1-6.8,1.8c-0.7,0.2-1.4,0.5-2.1,0.7c-1.5,0.5-3,1-4.5,1.6c-0.8,0.3-1.6,0.7-2.4,1.1c-1.3,0.6-2.6,1.2-3.9,1.9
				c-0.8,0.4-1.6,0.9-2.4,1.3c-1.2,0.7-2.5,1.5-3.7,2.2c-0.7,0.5-1.5,1-2.2,1.5c-1.3,0.9-2.5,1.8-3.7,2.7c-0.6,0.5-1.2,0.9-1.8,1.4
				c-1.7,1.4-3.3,2.9-4.9,4.4c-0.1,0.1-0.2,0.2-0.3,0.3c-1.6,1.6-3,3.2-4.5,4.9c-0.5,0.6-1,1.2-1.4,1.8c-0.9,1.2-1.9,2.4-2.7,3.7
				c-0.5,0.7-1,1.5-1.5,2.2c-0.8,1.2-1.5,2.4-2.2,3.6c-0.5,0.8-0.9,1.6-1.3,2.4c-0.7,1.3-1.3,2.5-1.9,3.9c-0.4,0.8-0.7,1.6-1.1,2.5
				c-0.6,1.4-1.1,2.9-1.6,4.4c-0.2,0.7-0.5,1.4-0.7,2.2c-0.7,2.2-1.3,4.5-1.8,6.8c-0.1,0.2-0.1,0.5-0.1,0.7
				c-0.4,1.9-0.7,3.8-0.9,5.7C392.4,405.1,369.9,380.2,369.9,350.1z M497.3,477.5c-32.8,0-59.4-26.7-59.4-59.4s26.7-59.4,59.4-59.4
				c32.8,0,59.4,26.7,59.4,59.4S530.1,477.5,497.3,477.5z M573.2,409c-0.2-1.9-0.6-3.8-0.9-5.7c-0.1-0.2-0.1-0.5-0.1-0.7
				c-0.5-2.3-1.1-4.6-1.7-6.8c-0.2-0.7-0.5-1.5-0.8-2.2c-0.5-1.5-1-2.9-1.6-4.4c-0.3-0.8-0.7-1.7-1.1-2.5c-0.6-1.3-1.2-2.6-1.8-3.8
				c-0.4-0.8-0.9-1.7-1.4-2.5c-0.7-1.2-1.4-2.4-2.2-3.6c-0.5-0.8-1-1.5-1.5-2.3c-0.8-1.2-1.8-2.4-2.7-3.6c-0.5-0.6-1-1.3-1.5-1.9
				c-1.4-1.6-2.8-3.2-4.3-4.7c-0.2-0.2-0.4-0.4-0.6-0.6c-1.5-1.5-3.1-2.9-4.7-4.3c-0.6-0.5-1.3-1-1.9-1.5c-1.2-0.9-2.4-1.8-3.6-2.7
				c-0.7-0.5-1.5-1-2.3-1.5c-1.2-0.8-2.4-1.5-3.6-2.2c-0.8-0.5-1.6-0.9-2.5-1.4c-1.2-0.7-2.5-1.3-3.8-1.8c-0.8-0.4-1.7-0.8-2.5-1.1
				c-1.4-0.6-2.9-1.1-4.4-1.6c-0.7-0.3-1.5-0.5-2.2-0.8c-2.2-0.7-4.5-1.3-6.8-1.7c-0.2-0.1-0.5-0.1-0.7-0.1
				c-1.9-0.4-3.8-0.7-5.7-0.9c0.3-2.4,0.8-4.7,1.4-7c0.2-0.7,0.4-1.3,0.6-2c0.5-1.7,1.1-3.4,1.8-5c0.3-0.6,0.5-1.3,0.8-1.9
				c1-2.2,2-4.3,3.3-6.4c7.1-12,18.3-21.2,31.5-25.8c3.8-1.3,7.6-2.3,11.3-2.7c3-0.4,5.8-0.6,8.4-0.6c2.5,0,4.9,0.2,7.4,0.5
				c17,2.1,32.3,11.5,42,26c6.6,9.7,10.1,21.2,10.1,33C624.7,380.2,602.2,405.1,573.2,409z M624.5,302c-0.3-0.4-0.6-0.7-0.9-1
				c-0.7-0.9-1.5-1.7-2.3-2.5c-1.2-1.4-2.5-2.7-3.8-3.9c-0.8-0.8-1.7-1.6-2.6-2.3c-1.4-1.2-2.8-2.3-4.2-3.4c-0.9-0.7-1.8-1.3-2.7-2
				c-1.6-1.1-3.2-2.1-4.9-3c-0.8-0.5-1.6-1-2.5-1.5c-2.4-1.3-4.9-2.4-7.4-3.4c-0.1-0.1-0.3-0.1-0.4-0.2c-2.7-1-5.5-1.9-8.3-2.6
				c-0.9-0.2-1.8-0.4-2.7-0.6c-2-0.4-3.9-0.8-5.9-1.1c-1.1-0.2-2.2-0.2-3.3-0.3c-1.1-0.1-2.2-0.3-3.3-0.3c0.5-1.5,1-3,1.4-4.5
				c0.1-0.4,0.2-0.7,0.3-1.1c0.8-2.9,1.4-5.8,1.8-8.8c0.1-0.7,0.2-1.3,0.3-2c0.4-3,0.6-6.1,0.6-9.1c0-3.6-0.3-7.2-0.8-10.7
				c-0.1-0.6-0.1-1.1-0.2-1.7c-0.6-3.4-1.4-6.7-2.4-10c-0.2-0.6-0.4-1.2-0.6-1.8c-1.1-3.3-2.4-6.5-3.9-9.6c-0.2-0.3-0.4-0.7-0.6-1
				c-1.5-3-3.3-5.9-5.2-8.6c-0.2-0.3-0.3-0.5-0.5-0.8c5.9-5.2,12.7-9.3,20-11.8c6.4-2.2,13-3.4,19.6-3.4c2.5,0,4.9,0.2,7.4,0.5
				c17,2.1,32.3,11.5,42,26c6.6,9.7,10.1,21.2,10.1,33C658.7,271.4,645.2,292.3,624.5,302z M692.6,146.3c0,23.2-13.5,44.1-34.1,53.8
				c-0.3-0.3-0.6-0.6-0.9-1c-0.8-1-1.7-1.9-2.5-2.8c-1.2-1.3-2.4-2.5-3.6-3.7c-0.9-0.9-1.9-1.7-2.9-2.5c-1.3-1.1-2.6-2.2-4-3.2
				c-1-0.8-2.1-1.5-3.1-2.2c-1.4-0.9-2.9-1.8-4.3-2.7c-1.1-0.6-2.2-1.2-3.3-1.8c-1.5-0.8-3.1-1.5-4.7-2.2c-1.1-0.5-2.3-1-3.4-1.4
				c-1.7-0.6-3.4-1.1-5.1-1.6c-1.1-0.3-2.2-0.7-3.4-1c-1.9-0.5-3.9-0.8-5.9-1.1c-1-0.2-1.9-0.4-2.9-0.5c-3-0.4-6-0.6-9.1-0.6
				c-2.8,0-5.6,0.2-8.3,0.5c-0.7,0.1-1.4,0.2-2.2,0.3c-2.5,0.3-4.9,0.8-7.3,1.4c-0.2,0.1-0.5,0.1-0.7,0.1c-2.5-4.6-4.3-9.5-5.4-14.7
				c0.7,0.2,1.4,0.3,2.1,0.5c1.8,0.5,3.6,1,5.5,1.4c1.5,0.3,3,0.6,4.5,0.9c1.9,0.3,3.8,0.5,5.7,0.6c1.4,0.1,2.9,0.2,4.3,0.3
				c0.6,0,1.2,0.1,1.8,0.1c2.3,0,4.6-0.1,6.9-0.3c0.1,0,0.1,0,0.2,0c3.2-0.3,6.3-0.8,9.4-1.5c0.7-0.2,1.4-0.3,2.1-0.5
				c2.5-0.6,5.1-1.4,7.5-2.3c0.6-0.2,1.2-0.4,1.7-0.6c2.9-1.1,5.8-2.5,8.6-4c0.5-0.3,1-0.6,1.5-0.9c2.3-1.3,4.5-2.7,6.7-4.3
				c0.7-0.5,1.4-1,2.1-1.5c2.6-2,5-4.1,7.4-6.4c1.1-1.1,2.2-2.4,3.2-3.7c0.3-0.4,0.7-0.9,1-1.3c0.7-1,1.4-2,2.1-3
				c0.4-0.6,0.7-1.1,1.1-1.7c0.6-1.1,1.2-2.2,1.9-3.4c0.3-0.6,0.6-1.2,1-1.9c0.7-1.4,1.3-2.8,1.9-4.3c0.2-0.5,0.4-1,0.6-1.5
				c0.8-2,1.6-4.2,2.3-6.4c0.2-0.5,0.3-1,0.5-1.5c0.6-1.8,1.1-3.6,1.7-5.5c0.2-0.8,0.4-1.7,0.7-2.5c0.3-1,0.5-1.9,0.8-2.9
				C684.9,112.4,692.6,128.8,692.6,146.3z M557.1,44.8c17.8-17.7,76.3-21.6,105.7-21.6c-0.1,12.8-0.8,38.6-5,62.4
				c-4.7,26.8-11.6,38.4-16.6,43.4c-6.4,6.4-14.1,10.9-22.2,13.8c-16.1,5.7-34.2,4.5-49.8-4.5c-4.4-2.4-8.4-5.4-12.2-9.3
				c-11.1-11.1-17.2-25.8-17.4-41.5C539.6,71.4,545.8,56.2,557.1,44.8z"/>
			<path class="st0" d="M565.3,113.1c0,0.4,0.2,0.8,0.3,1.3c0.1,0.4,0.1,0.8,0.3,1.1c0,0,0,0,0,0.1c0,0,0,0,0,0.1l0,0
				c0,0.1,0.1,0.2,0.2,0.3c0.1,0.3,0.3,0.5,0.5,0.8s0.4,0.7,0.6,1c0.1,0.1,0.3,0.2,0.4,0.4c0.2,0.2,0.4,0.4,0.7,0.6c0,0,0,0,0.1,0.1
				c0.2,0.2,0.4,0.5,0.7,0.6c0.3,0.2,0.6,0.3,1,0.5c0.3,0.1,0.5,0.3,0.8,0.4c0.2,0.1,0.3,0.2,0.5,0.2c0.8,0.2,1.6,0.4,2.5,0.4h0.7
				h50.3c4.7,0,8.5-3.8,8.5-8.5s-3.8-8.5-8.5-8.5h-30.4l35-35c3.3-3.3,3.3-8.7,0-12s-8.7-3.3-12,0l-35,35V61.4
				c0-4.7-3.8-8.5-8.5-8.5s-8.5,3.8-8.5,8.5v51c0,0.1,0.1,0.2,0.1,0.3C565.3,112.7,565.3,112.9,565.3,113.1z"/>
		</g>
		<path class="st0" d="M297.7,517.8c2.3,0,4.2-1.9,4.2-4.2v-4.2h4.2c2.3,0,4.2-1.9,4.2-4.2s-1.9-4.2-4.2-4.2H302v-4.2
			c0-2.3-1.9-4.2-4.2-4.2s-4.2,1.9-4.2,4.2v4.2h-4.2c-2.3,0-4.2,1.9-4.2,4.2s1.9,4.2,4.2,4.2h4.2v4.2
			C293.5,515.9,295.4,517.8,297.7,517.8z"/>
	</g>
	<g>
		<path class="st1" d="M245,765.8c-3.2-0.5-5.7-1.7-7.3-3.4c-1.6-1.8-2.8-3.9-3.5-6.4s-1.1-5.3-1.2-8.4c-0.1-3.1-0.2-6.2-0.3-9.5
			c0.5-1.5,1.2-2.8,2-3.9c0.8-1.1,1.2-2.5,1.2-4.4c1.5-3.8,2.8-7.4,4-10.9s2.1-7.1,2.7-10.8c0.7-1.1,1.5-1.8,2.2-2.2
			c1.3-6.6,1.8-13.3,1.6-20.1c-0.3-6.8-1-13.1-2.2-18.8c0.2-1.3,0.4-2.2,0.7-2.9c0.3-0.6,0.3-1.2,0.1-1.6c-0.2-1,0.2-1.6,1.1-1.6
			c0.9-0.1,1.8-0.1,2.7-0.2c0.1-2.1-0.1-4.1-0.7-6c-0.6-1.9-1.2-4.2-1.7-6.8c1-2.1,1.8-4.2,2.2-6.1c0.5-2,1.2-3.8,2.2-5.5
			c3.5,0.9,7,1.9,10.4,3.1c3.4,1.2,6.8,2.4,10.1,3.6c3.3,1.2,6.6,2.3,9.8,3.3c3.2,1.1,6.4,1.9,9.5,2.4c4.6,3.2,9.4,6.3,14.4,9.4
			c4.9,3.1,9.4,6.6,13.4,10.4c4,3.9,7.2,8.4,9.7,13.5c2.5,5.2,3.7,11.4,3.7,18.7c-0.3,0.7-0.5,1.3-0.6,1.8s-0.3,0.9-0.4,1.4
			s-0.2,1-0.3,1.6c0,0.6-0.1,1.4-0.1,2.4c-4.5,7.5-10,14-16.6,19.4c-6.5,5.4-13.6,10.3-21.2,14.6s-15.5,8.4-23.6,12.1
			C260.8,757.7,252.8,761.7,245,765.8z M267.7,667.3c-1,0.1-1.8,0.4-2.2,0.9c1,5,1.8,9.8,2.2,14.3c0.4,4.5,0.5,9.1,0.3,13.6
			c-0.2,4.6-0.8,9.3-1.6,14.1c-0.9,4.8-2,10.1-3.3,15.8c1.5-0.2,2.8-0.6,4-1.2c1.2-0.5,2.4-1.1,3.6-1.8s2.5-1.3,3.8-1.8
			c1.3-0.6,2.8-1,4.6-1.2c0.5-0.9,1.1-1.7,1.9-2.3s1.4-1.2,2.1-1.8c2.9-1.4,5.8-2.8,8.7-4.3c2.9-1.5,5.6-3.1,8.1-4.9
			c2.5-1.8,4.7-3.8,6.8-6c2.1-2.2,3.8-4.8,5.2-7.7c-0.8-1.6-1.8-3-3-4.1s-2.5-2.2-3.9-3.3c-1.3-1.1-2.6-2.2-3.8-3.5
			c-1.2-1.2-2.2-2.7-2.9-4.3c-1.8-0.1-3.4-0.5-4.7-1.1c-1.3-0.6-2.6-1.3-3.8-1.9c-1.2-0.6-2.5-1.3-3.9-1.8c-1.4-0.6-3-0.8-4.9-0.8
			c-2.8-1.4-5.4-2.3-7.8-2.7C270.6,669.1,268.8,668.3,267.7,667.3z"/>
		<path class="st1" d="M352,743.8c0.4,3.4,0,6.1-1.1,8.1s-2.5,3.6-4.3,4.7c-1.8,1.1-3.9,1.8-6.1,2.1c-2.3,0.3-4.4,0.3-6.4,0.2
			c-1-1.5-1.9-3.4-2.7-5.8c-0.8-2.3-1.5-4.8-2.1-7.3s-1.2-5-1.7-7.5s-0.9-4.7-1.2-6.6c0.6-1.4,1.1-3,1.4-4.8s0.5-3.6,0.7-5.4
			c0.2-1.8,0.3-3.7,0.5-5.6c0.2-1.9,0.4-3.7,0.8-5.4c1.1-4.9,2.5-9.5,4.3-14s3.3-9.1,4.5-13.8c0.3-1,0.3-2-0.1-2.9
			c-0.3-0.9-0.4-1.7-0.1-2.6c0.1-0.5,0.5-0.8,1.1-1s0.9-0.6,1.1-1.2c0.4-1.3,0.6-2.3,0.4-3.1c-0.1-0.8,0.1-1.8,0.8-3
			c0.6-1,1.4-2.4,2.4-4.2s1.4-3.7,1.3-5.6c1.1-0.8,2.1-1.6,3-2.6c1-1,1.9-1.9,3-2.7c1-0.8,2.1-1.6,3.3-2.2c1.2-0.7,2.7-1.1,4.4-1.2
			c0.8,1.1,1.3,2.3,1.6,3.6c0.2,1.4,0.4,2.7,0.6,4.1c0.2,1.3,0.5,2.6,1,3.8s1.4,2,2.7,2.6c-0.1,0.9-0.1,2.1-0.2,3.4
			c-0.1,1.4-0.1,2.7-0.1,4s0.2,2.5,0.5,3.5c0.3,1.1,0.9,1.7,1.8,2c-2.4,5.6-4.6,11.2-6.7,16.7s-3.9,11-5.3,16.5
			c-1.5,5.5-2.5,11-3.1,16.5C351.3,732.7,351.3,738.2,352,743.8z"/>
		<path class="st1" d="M493.1,714.1c-3,5.1-6.8,9.2-11.4,12.2s-9.6,5.6-15,7.8s-11.1,4.2-17,6s-11.6,4-17.2,6.6
			c-1.6,0.1-3,0.3-4.2,0.5s-2.3,0.4-3.4,0.7s-2.1,0.5-3.2,0.8c-1,0.3-2.2,0.5-3.4,0.7c-0.4-0.1-0.7,0-0.9,0.3
			c-0.1,0.3-0.3,0.6-0.6,0.8c-1.9,0.5-3.7,0.8-5.2,0.9c-1.5,0.1-2.8,0.2-3.8,0.3c-1.4,0.1-2.8,0.4-4.2,0.9c-1.4,0.5-2.7,0.7-3.8,0.7
			c-8.5,0.2-14.9-2.4-19.4-7.6c-4.5-5.3-6.7-12.9-6.6-23c0.1-0.6,0.1-0.9-0.2-1c-0.3-0.1-0.5-0.2-0.7-0.5c0.1-1.1,0.3-2.1,0.6-2.9
			c0.3-0.8,0.4-1.9,0.3-3.1c3.3-6.5,7-12.6,11.1-18.4c4.1-5.7,8.8-10.8,14.3-15.4c0.8-0.7,1.6-1.5,2.2-2.2s1.2-1.5,1.7-2.2
			c0.6-0.7,1.2-1.4,1.9-1.9c0.7-0.6,1.6-1,2.6-1.3c2.5-2.9,5.5-5.7,9-8.2c3.4-2.5,7-5,10.8-7.4s7.5-4.8,11.2-7.2s7.1-5,10.2-7.9
			c1.2,0.5,2.1,0.6,2.7,0.3s1.2-0.3,1.9-0.1c0.7,1.7,1.7,2.8,3.1,3.3c1.4,0.6,2.7,1.2,4.1,1.8s2.6,1.4,3.8,2.4
			c1.2,0.9,2.1,2.2,2.6,3.9c-0.7,0.1-1,0.3-1,0.8s0.1,1,0.3,1.5c0.2,0.5,0.2,1,0.2,1.5c-0.1,0.5-0.5,0.8-1.3,0.9
			c0.1,0.6,0.4,0.8,1,0.9c0.6,0,0.9,0.3,0.9,0.9c0,0.6-0.2,1-0.5,1.4s-0.4,0.9-0.2,1.7c-2.4,1.7-5,3.3-7.8,4.9
			c-2.9,1.6-5.8,3.3-8.9,5c-3.1,1.8-6.3,3.7-9.6,5.7c-3.3,2-6.6,4.3-9.8,6.8c-3.2,2.5-6.5,5.3-9.8,8.4c-3.3,3-6.6,6.2-9.7,9.5
			s-6.1,6.7-8.9,10.2s-5.2,6.9-7.2,10.2c0.2,0.6,0.4,1,0.7,1.2c0.3,0.3,0.5,0.7,0.7,1.2c3.6,0,7-0.3,10.1-0.9
			c3.1-0.5,6.3-0.6,9.4-0.1c0.4-0.3,0.6-0.6,0.7-1.1s0.4-0.8,0.9-1.1c6.5-1.2,12.6-2.7,18.2-4.6c5.6-1.9,11.4-3.8,17.3-5.9
			c-0.9-0.3-1.7-0.5-2.4-0.8c-0.7-0.2-1.4-0.4-2.1-0.6c-0.5-0.5-0.5-1,0.2-1.5c0.6-0.4,1.2-0.9,1.7-1.4c-1.5-0.8-2.7-1.8-3.6-3.1
			s-1.4-3.1-1.4-5.4c0.7-0.6,1.1-1.3,1.1-2.1s-0.3-1.4-0.9-1.8c-0.4-0.1-0.7-0.1-0.8,0.1c-0.1,0.1-0.2,0.3-0.3,0.5
			c-0.1,0.2-0.2,0.4-0.3,0.6c-0.1,0.2-0.4,0.2-0.8,0c0.2-1,0.5-1.9,0.9-2.6c0.4-0.7,0.8-1.5,1.1-2.5l12.2-8.8
			c1.2,0.8,2.7,1.7,4.4,2.6c1.7,0.9,3.6,1.9,5.5,2.8c1.9,0.9,3.9,1.9,5.9,2.8c2,0.9,3.9,1.8,5.7,2.7c1.5,0.6,2.9,1.4,4.1,2.4
			s2.3,2.1,3.3,3.2c1.1,1.1,2.1,2.2,3.3,3.2c1.1,1.1,2.4,1.9,4,2.6c-0.3,1.5-0.3,2.7-0.1,3.6C493.3,711.6,493.3,712.7,493.1,714.1z"
			/>
		<path class="st1" d="M512.3,731.4c0.4,3.4,0,6.1-1.1,8.1s-2.5,3.6-4.3,4.7c-1.8,1.1-3.9,1.8-6.1,2.1c-2.3,0.3-4.4,0.3-6.4,0.2
			c-1-1.5-1.9-3.4-2.7-5.8c-0.8-2.3-1.5-4.8-2.1-7.3s-1.2-5-1.7-7.5s-0.9-4.7-1.2-6.6c0.6-1.4,1.1-3,1.4-4.8s0.5-3.6,0.7-5.4
			c0.2-1.8,0.3-3.7,0.5-5.6c0.2-1.9,0.4-3.7,0.8-5.4c1.1-4.9,2.5-9.5,4.3-14s3.3-9.1,4.5-13.8c0.3-1,0.3-2-0.1-2.9
			c-0.3-0.9-0.4-1.7-0.1-2.6c0.1-0.5,0.5-0.8,1.1-1s0.9-0.6,1.1-1.2c0.4-1.3,0.6-2.3,0.4-3.1c-0.1-0.8,0.1-1.8,0.8-3
			c0.6-1,1.4-2.4,2.4-4.2s1.4-3.7,1.3-5.6c1.1-0.8,2.1-1.6,3-2.6c1-1,1.9-1.9,3-2.7c1-0.8,2.1-1.6,3.3-2.2c1.2-0.7,2.7-1.1,4.4-1.2
			c0.8,1.1,1.3,2.3,1.5,3.6c0.2,1.4,0.4,2.7,0.6,4.1c0.2,1.3,0.5,2.6,1,3.8s1.4,2,2.7,2.6c-0.1,0.9-0.1,2.1-0.2,3.4
			c-0.1,1.4-0.1,2.7-0.1,4s0.2,2.5,0.5,3.5c0.3,1.1,0.9,1.7,1.8,2c-2.4,5.6-4.6,11.2-6.7,16.7c-2.1,5.5-3.9,11-5.3,16.5
			c-1.5,5.5-2.5,11-3.1,16.5C511.6,720.4,511.7,725.9,512.3,731.4z"/>
		<path class="st1" d="M632.9,652c-2.8,0.2-5.9,0.7-9.2,1.3c-3.3,0.7-6.6,1.3-9.8,2c-2.3,0.5-4.5,1-6.6,1.4s-4,0.7-5.7,1
			c-0.9,2.6-1.9,4.9-2.8,6.9c-0.9,2-1.9,4-2.9,5.9c-1,2-2,4.1-2.8,6.1c-0.9,2.1-1.7,4.3-2.5,6.6c-1.2,1.9-2.3,3.7-3.1,5.3
			s-1.5,3.4-2.1,5.4c-1.5,1.8-2.6,3.7-3.4,5.6c-0.8,1.9-1.4,3.6-1.8,5l-0.8,2.1c-0.7,0.7-1.2,1.3-1.3,1.7s-0.4,0.8-0.9,1.2
			c-0.2,1.3-0.7,2.6-1.4,3.9c-0.3,0.6-0.5,1.1-0.6,1.7c-0.1,0.5-0.2,0.9-0.2,1.1c-0.1,1.1-0.4,1.9-1,2.3c0.1,0.6,0,1.2-0.1,1.8
			c-0.2,0.6-0.3,1.2-0.5,1.8c-0.4,1.4-0.6,2.5-0.5,3.3c0.3,0.4,0.6,0.8,0.9,1.1c0.3,0.3,0.4,0.8,0.5,1.3c0.7,0.4,1.1,0.7,1.5,0.7
			c0.4,0.3,1.1,0.7,2,1l1.4,1.6c0.4,3.3-0.3,5.9-2,8c-1.8,2.3-4.8,3.6-8.9,3.9l-2,0.2c-0.5-0.5-0.8-1-0.9-1.3
			c-0.9-0.3-1.6-0.5-2.2-0.7c-0.6-0.2-1-0.6-1.4-1.3c-1.4-0.6-2.6-1.1-3.5-1.4l-1.5-0.7c0.1-1.3,0.1-1.9,0.1-2.1
			c-0.7-1-1.3-2.1-1.6-3.3s-0.6-2.5-0.7-3.7c-0.2-1-0.4-2-0.6-2.9c-0.2-0.9-0.5-1.7-1-2.3c0.2-6.6,1.1-12.3,2.9-17
			c1.7-4.7,3.5-9.2,5.4-13.6c1-2.4,2.1-4.7,3.1-7.2c1-2.4,2-4.9,2.8-7.5l1.6-1.8c0.9-1.9,1.6-3.5,2.2-4.7c0.6-1.2,1.2-2.5,1.8-3.8
			c0.4-0.8,0.7-1.6,1.1-2.4c0.3-0.8,0.6-1.4,0.9-2c-0.7,0.1-1.3,0.1-1.9,0.2c-0.6,0.1-1.1,0.2-1.7,0.4c-0.7,0.2-1.3,0.3-1.9,0.4
			c-0.6,0.1-1.1,0.2-1.7,0.2c-0.8,0.1-1.4,0-1.7,0c-1.3,0.7-2.7,1.1-4.1,1.2l-1.7,0.1c-0.3,0-0.6,0-0.9,0c-0.3,0-0.5,0-0.8,0
			c-1.1,0.1-2,0.3-2.7,0.7c-1.4,0.1-2.7,0.2-3.9,0.3l-1.7,0.1c-0.2,0-0.5,0.1-0.9,0.2c-0.3,0.1-0.6,0.1-0.9,0.2
			c-0.8,0.1-1.6,0-2.5-0.1s-1.8-0.4-2.8-0.9c-1.2-1.7-2.1-2.6-2.5-2.7l-1.4-1.9c-0.1-0.7-0.2-1.3-0.4-1.9c-0.2-0.6-0.4-1.3-0.5-2.1
			c-0.4-1.1-0.7-2.3-1-3.6s-0.4-2.8-0.3-4.7c0.2-0.9,0.4-1.6,0.8-2.1c0.4-0.5,0.7-0.9,0.9-1.3l0.7-2.6h2.2l4.8-0.4
			c3.6-0.3,7.3-0.7,11.1-1.3s7.6-1.2,11.6-1.8c2.3-0.4,4.6-0.8,6.9-1.2c2.3-0.4,4.8-0.8,7.3-1.2c0.5-1.1,1-2.1,1.5-3l1.7-1
			c2-0.3,3.5-0.1,4.3,0.4c0.8,0.6,1.5,1.1,2,1.6c2.5-0.4,5-0.9,7.6-1.4s5.2-1.1,7.8-1.7c3.9-0.9,7.8-1.7,11.7-2.4
			c3.9-0.8,7.7-1.3,11.3-1.6c1.6-0.1,3.1-0.2,4.6-0.2s2.8,0.1,4,0.2l1.6,1.1c0.3,0.7,0.7,1.3,1.3,1.8s1.2,1,1.8,1.6
			c1.3,1.2,2.5,2.5,3.8,4.1s1.6,4.1,1.1,7.4c-1,1.4-1.7,2.3-2.2,2.6l-1.7,2.2h-1.7c-0.7,0.1-1.3,0.2-1.9,0.4
			c-0.6,0.2-1.2,0.5-1.7,0.7c-0.5,0.3-0.9,0.5-1.4,0.7s-1,0.4-1.6,0.5c-1,0.1-1.8,0.1-2.5,0.1C634.3,651.9,633.6,651.9,632.9,652z"
			/>
		<path class="st1" d="M696.6,714.8c-0.8,2-1.9,4-3.3,6.1c-1.4,2.1-3.1,4-4.9,5.7c-1.9,1.7-3.9,3.1-6.1,4.3
			c-2.2,1.2-4.5,1.9-6.9,2.2c-1.5-0.2-2.4-0.5-2.9-0.9s-1-0.7-1.5-1c-0.3-0.2-0.6-0.4-0.9-0.5c-0.3-0.1-0.5-0.3-0.7-0.4l-2-0.7
			l0.8-2.3c0.3-0.9,0.3-1.6,0-2.1s-0.9-1.1-1.9-2c-0.3-0.3-0.6-0.6-1-1c-0.3-0.3-0.6-0.6-0.8-1l-2.7-3l4.7-1.6
			c2.9-1,4.8-2.2,5.9-3.5c1-1.3,1.5-3.5,1.5-6.4c-2.2-0.3-4.1-0.2-5.7,0.3c-1.5,0.5-3.1,1-4.7,1.6c-2.1,0.7-4.2,1.4-6.3,1.9
			c-2.1,0.6-4.4,0.9-6.9,1.1c-0.9,0.1-1.8,0.1-2.5,0.1c-0.8,0-1.6,0-2.5-0.1l-1.7-0.2c-0.2-1.2-0.3-1.9-0.5-2.1
			c-0.2-0.2-0.4-0.3-0.6-0.5c-0.5-0.5-1.1-1.3-1.6-2.2c-0.6-0.9-0.6-2.1-0.2-3.7c-0.5-1-0.8-2-0.8-3c-0.8,1.4-1.4,2.9-1.8,4.4
			l-0.8,1.8l-1.7,0.5c-0.2,0.1-0.4,0.4-0.6,0.8c-0.1,0.4-0.2,0.7-0.2,1l-1,3c-0.2,0.2-0.5,0.5-0.7,0.7s-0.5,0.4-0.7,0.7
			c-0.3,1-0.6,2.1-1,3.2c-0.4,1.1-0.8,2.1-1.2,3c-0.7,1.5-1.2,3-1.7,4.5s-0.7,2.9-0.7,4.2l-0.8,1.9c-0.6,0.7-1.3,1.3-2,1.8
			s-1.4,0.9-2.1,1.3c-0.2,0.2-0.6,0.5-1,0.7s-0.7,0.4-1,0.5l-0.6,1.9l-2.1,0.5c-1.3,0.3-2.1,0.6-2.7,0.7c-0.5,0.2-1.1,0.3-1.8,0.3
			H612c-1.2-0.9-2.1-1.7-2.7-2.3c-0.6-0.6-1.4-1.1-2.3-1.6c-0.9-1.3-1.4-2.3-1.5-3s-0.1-1.3-0.2-1.9c-0.2-0.7-0.3-1.2-0.3-1.7
			s-0.1-0.8-0.4-1l-2.1-1.9l2-1.7l0.3-2.9c2.6-6,5.4-11.8,8.2-17.4c2.9-5.6,5.8-11.3,8.9-17.1c1-1.9,2-3.8,3-5.7s1.9-3.8,3-5.7
			c-0.1-0.3-0.1-0.7-0.1-1.2s0.2-1,0.4-1.6c1.4-2,2.5-3.9,3.4-5.5s1.8-3.2,2.7-4.9c1-2,2.1-4,3.1-5.9c1.1-1.9,2.4-3.9,4-5.9l2.8-1.4
			c0.3-0.1,0.8-0.3,1.2-0.5c0.5-0.2,1-0.3,1.5-0.4l2.5,0.1c3.3-1.7,6.2-4,8.7-6.9s5.2-6.3,7.9-10.3l1.8-2.5l2.1,1.2
			c0.5,0.3,1.3,0.6,2.3,0.8s2.1,0.4,3.2,0.7c2,0.3,3.9,0.7,5.7,1.1c1.8,0.4,3.2,1.2,4.3,2.2c0.6,1.8,0.9,3.1,0.9,4
			c0.1,0.9,0.2,1.8,0.3,2.7c0.2,1.9,0.4,3.8,0.6,5.8c0.2,1.9,0.2,4.1,0.2,6.5c0.4,1.9,0.8,3.8,1.1,5.6c0.3,1.9,0.5,3.7,0.7,5.7
			c0.4,2.7,0.8,5.3,1.2,7.8s1,4.9,1.8,7.1c0.9-0.1,1.5-0.1,1.7,0c0.6-0.3,1.2-0.5,1.8-0.7s1.3-0.3,2.1-0.5l1.9-0.3l0.6,1.7
			c0.1,0.6,0.6,1.1,1.6,1.6c1.5,0,2.5,0.2,3.2,0.7c0.6,0.5,1.2,1,1.8,1.5c0.4,0.4,0.9,0.7,1.3,0.9l2.5,0.8l-1.5,2.7
			c-1.3,2.1-3,4.2-5.2,6.3c-2.2,2-4.7,3.8-7.3,5.3c0.1,0.7,0.1,1.3,0.1,2c0,0.6,0.1,1.3,0.3,1.9c0.2,1.9,0.4,3.9,0.5,5.9
			s0,4.2-0.4,6.3L696.6,714.8z M649.4,688.9c3.4-0.5,6.5-1,9.3-1.5s5.9-1.2,9.3-2.2c-0.6-3.4-1.2-6.9-1.9-10.5s-1.4-7.3-2.2-10.8
			l-1.1,1.8c-2.4,2.6-4.8,5.4-7,8.6c-2.3,3.1-4.2,6.1-5.9,8.8c-0.7,1.1-1.5,2.2-2.2,3.2s-1.4,2.2-2.1,3.2c0.7-0.2,1.3-0.3,2-0.3
			C648.2,689.2,648.8,689.1,649.4,688.9z"/>
		<path class="st1" d="M751.9,723c-3.2,1.3-6.7,2.6-10.5,3.9c-3.8,1.3-7.6,2.1-11.3,2.4c-5.7,0.4-10-0.7-13.1-3.3
			c-0.5-1.2-0.9-2-1.4-2.5c-0.3-0.4-0.6-0.9-0.8-1.4c-0.3-0.5-0.4-1.2-0.5-2.1c-1.3-1.5-2.2-3.3-2.9-5.3c-0.7-2.1-1.1-4.2-1.2-6.4
			c-0.1-2.2-0.1-4.5,0.2-6.8s0.8-4.5,1.5-6.6c0.3-0.5,0.4-0.9,0.5-1.4s0.2-1,0.3-1.6c0.6-1.9,1.2-3.7,1.8-5.4
			c0.6-1.8,1.4-3.3,2.4-4.6c-0.4-1-0.3-2.1,0.2-3.4c0.5-1.3,1.1-2.5,1.7-3.5c1.9-4.5,3.4-8.3,4.7-11.4c1.3-3.1,2.5-6.2,3.9-9.3
			c2.2-5.3,4.4-10.5,6.4-15.7s3.9-10.7,5.6-16.6c0.9-0.6,1.6-1.1,2.1-1.4c0.7-0.3,1.3-0.5,1.7-0.6c2,0.9,4.3,1.7,6.9,2.5
			c2.7,0.8,4.9,1.1,6.7,0.9c0.9,0.5,1.4,0.9,1.6,1.2c0.2,0.3,0.4,0.5,0.6,0.7c1.2,1.4,2.1,2.8,2.9,4.3c0.8,1.5,1,3.5,0.5,6
			c-0.7,1.1-1.3,1.6-1.6,1.7c-0.7,2.3-1.4,4.3-2.1,6c-0.7,1.7-1.5,3.3-2.2,5c-0.9,1.8-1.7,3.5-2.5,5.3s-1.5,3.9-2.1,6.5
			c-0.5,0.6-0.8,1.1-1,1.6s-0.4,1-0.7,1.6s-0.6,1.2-0.9,1.9c-0.3,0.7-0.8,1.2-1.4,1.7c-0.5,3-1.2,5.4-2.1,7.3
			c-0.8,1.9-1.7,3.8-2.6,5.7c-1.6,3.4-3,6.8-4.3,10.2s-2.2,7.2-2.6,11.5c0.6-0.3,1.1-0.4,1.6-0.5c0.5,0,1-0.1,1.4-0.1
			c1-0.1,2.2,0,3.5,0.2c3.5-2.1,7.3-3.5,11.3-4.1c4-0.7,8-1.2,12-1.6c1.6-0.1,3.2-0.2,4.8-0.4c1.6-0.1,3.1-0.3,4.4-0.7
			c1,0.5,1.6,0.8,1.9,0.8c0.3,0,0.7,0,1.3,0c0.8-0.1,1.5-0.1,2,0c1.3,1.2,2.5,2,3.7,2.4c1.2,0.5,2.5,0.9,3.8,1.2
			c1.2,0.4,2.4,0.8,3.6,1.2c1.2,0.4,2.3,1,3.3,1.9l0.7,7.3c0.7,1,1,1.6,0.9,2c-0.1,0.9-0.3,1.6-0.8,2.1l0.2,1.9
			c-1.7,0.5-2.9,1-3.6,1.5c-0.7,0.5-1.3,1.1-1.9,1.7c-0.9,0.2-1.6,0.3-2,0.3s-0.8,0.1-1.1,0.1c-1.6,0.1-3.5,0.6-5.8,1.3
			c-3-0.8-6.1-1.1-9.4-0.8c-1.2,0.1-2.5,0.3-3.9,0.5s-2.7,0.4-4.1,0.7c-1.4,0.3-2.8,0.6-4.2,0.8s-2.9,0.4-4.3,0.5L751.9,723z"/>
	</g>
</g>
</svg>
